<?xml version="1.0" encoding="UTF-8" standalone="no"?>
<!-- Created with Inkscape (http://www.inkscape.org/) -->

<svg
   width="40.000225mm"
   height="40.000225mm"
   viewBox="0 0 40.000225 40.000227"
   version="1.1"
   id="svg1"
   xml:space="preserve"
   inkscape:version="1.4.3 (0d15f75, 2025-12-25)"
   sodipodi:docname="cut_icon.svg"
   xmlns:inkscape="http://www.inkscape.org/namespaces/inkscape"
   xmlns:sodipodi="http://sodipodi.sourceforge.net/DTD/sodipodi-0.dtd"
   xmlns="http://www.w3.org/2000/svg"
   xmlns:svg="http://www.w3.org/2000/svg"><sodipodi:namedview
     id="namedview1"
     pagecolor="#505050"
     bordercolor="#eeeeee"
     borderopacity="1"
     inkscape:showpageshadow="0"
     inkscape:pageopacity="0"
     inkscape:pagecheckerboard="0"
     inkscape:deskcolor="#505050"
     inkscape:document-units="mm"
     inkscape:zoom="1.4142136"
     inkscape:cx="186.67618"
     inkscape:cy="178.54445"
     inkscape:window-width="1920"
     inkscape:window-height="1009"
     inkscape:window-x="1912"
     inkscape:window-y="-8"
     inkscape:window-maximized="1"
     inkscape:current-layer="layer1"
     showgrid="false" /><defs
     id="defs1"><linearGradient
       id="swatch2"
       inkscape:swatch="solid"><stop
         style="stop-color:#000000;stop-opacity:1;"
         offset="0"
         id="stop2" /></linearGradient><linearGradient
       id="swatch6"
       inkscape:swatch="solid"><stop
         style="stop-color:#000000;stop-opacity:0;"
         offset="0"
         id="stop6" /></linearGradient></defs><g
     inkscape:label="Layer 1"
     inkscape:groupmode="layer"
     id="layer1"
     transform="translate(-2.0073062,-14.328322)"><g
       id="g1"
       transform="matrix(3.1249749,0,0,3.1249749,-3.4040869,24.618342)" /><g
       id="g2"
       transform="matrix(3.768617,0,0,3.768617,-40.162675,-137.76648)" /><path
       d="M 32.960822,50.379257 C 28.978505,49.337855 26.420236,46.305606 26.582201,42.81886 l 0.08633,-1.862286 -1.766488,-1.234667 C 22.56022,38.085162 23.096279,37.899885 15.94256,42.818623 7.9155141,48.337829 6.0390144,48.785965 2.9208094,45.928366 1.4258318,44.558325 1.4016051,44.591531 6.2725706,41.337096 14.852554,35.604555 16.599637,34.370767 16.459098,34.143374 16.378991,34.013841 13.317833,31.883175 9.6564911,29.408595 1.2375791,23.718593 1.4794183,23.941801 2.5228383,22.824974 c 1.7701819,-1.894711 4.9583448,-2.46242 7.2421868,-1.289588 1.1424659,0.586706 1.8599339,1.071804 8.9459119,6.048601 l 3.858733,2.710139 1.985344,-1.348245 c 1.09199,-0.741535 1.998566,-1.527927 2.014666,-1.747534 0.01555,-0.219596 0.0039,-1.088891 -0.02333,-1.931743 -0.276487,-8.145722 14.474147,-10.184556 15.382435,-2.126174 0.491144,4.357138 -2.638999,7.180318 -9.180207,8.279938 -7.057901,1.186485 -6.93039,4.772203 0.202603,5.692962 5.669435,0.731856 9.032512,3.458545 9.056039,7.342415 0.02333,4.048518 -4.610927,7.083566 -9.047018,5.923512 z m 5.611104,-2.023294 c 5.024881,-3.105555 1.763921,-8.803102 -5.729438,-10.010393 -2.87306,-0.462897 -5.558996,-1.556575 -6.142886,-2.501307 -0.185881,-0.300598 -2.781637,1.246637 -2.777087,1.655243 9.72e-4,0.09053 0.602167,0.535021 1.335929,0.987734 2.434296,1.501923 2.604661,1.775544 2.541158,4.081288 -0.143104,5.198228 6.206195,8.609459 10.772324,5.787435 z m -5.596483,-1.156434 c -1.570146,-0.595075 -2.624377,-1.535203 -3.153242,-2.81202 -1.798764,-4.34259 6.42229,-5.496049 8.725499,-1.224237 1.564391,2.901487 -1.915465,5.422121 -5.572257,4.036257 z m 3.594067,-1.134723 c 2.68893,-1.02232 0.444986,-4.315692 -2.975683,-4.367405 -3.097167,-0.04682 -3.689419,2.390409 -0.956935,3.937982 1.424903,0.807009 2.60155,0.935496 3.932618,0.429423 z m -24.051274,-2.42232 c 10.243497,-6.918106 13.215409,-9.124839 13.983236,-10.382881 1.038481,-1.701472 2.711406,-2.588768 5.671263,-3.007952 6.927862,-0.981142 10.300817,-4.625556 7.955533,-8.59579 -3.154215,-5.339653 -13.086537,-1.608389 -12.376147,4.649328 0.214268,1.887551 0.169548,1.929304 -7.961055,7.413501 C 1.7586669,45.881943 2.543254,45.21609 5.2634102,46.04775 c 2.0754849,0.634564 3.4078749,0.192802 7.2548258,-2.405264 z m 9.554767,-9.142991 c -0.283876,-0.459222 0.573196,-1.026049 0.962612,-0.636657 0.316542,0.316697 0.01167,1.002713 -0.445996,1.002713 -0.159827,0 -0.392177,-0.164726 -0.516616,-0.366044 z m 9.89328,-6.733287 c -2.373983,-0.812757 -3.020171,-2.353236 -1.815719,-4.328626 1.305208,-2.140589 5.480094,-3.207598 7.464038,-1.907648 3.828401,2.508451 -0.991855,7.830449 -5.648319,6.236274 z m 3.684246,-1.440255 c 1.413937,-0.641969 2.084351,-1.475931 2.084351,-2.592758 0,-1.559647 -2.518293,-2.141683 -4.698967,-1.086041 -4.175664,2.021409 -1.628478,5.605326 2.614616,3.678799 z M 19.814048,32.215777 C 21.730796,30.897005 22.066042,31.308812 15.3143,26.687914 8.0588521,21.722274 6.527787,21.211542 4.1943635,22.978461 l -0.7806595,0.591143 1.0976287,0.791618 c 3.8169294,2.75279 13.0476493,8.845827 13.4095723,8.851408 0.239156,0.0037 1.090901,-0.4449 1.893143,-0.996853 z"
       style="fill:#ffffff;fill-opacity:1;stroke-width:0.999999"
       id="path1-8" /></g></svg>
