<?xml version="1.0" encoding="UTF-8" standalone="no"?>
<!-- Created with Inkscape (http://www.inkscape.org/) -->

<svg
   width="40.000225mm"
   height="40.000225mm"
   viewBox="0 0 40.000225 40.000227"
   version="1.1"
   id="svg1"
   xml:space="preserve"
   inkscape:version="1.4.3 (0d15f75, 2025-12-25)"
   sodipodi:docname="hydraulics_icon.svg"
   xmlns:inkscape="http://www.inkscape.org/namespaces/inkscape"
   xmlns:sodipodi="http://sodipodi.sourceforge.net/DTD/sodipodi-0.dtd"
   xmlns="http://www.w3.org/2000/svg"
   xmlns:svg="http://www.w3.org/2000/svg"><sodipodi:namedview
     id="namedview1"
     pagecolor="#505050"
     bordercolor="#eeeeee"
     borderopacity="1"
     inkscape:showpageshadow="0"
     inkscape:pageopacity="0"
     inkscape:pagecheckerboard="0"
     inkscape:deskcolor="#505050"
     inkscape:document-units="mm"
     inkscape:zoom="2.8284272"
     inkscape:cx="51.972347"
     inkscape:cy="96.69685"
     inkscape:window-width="1920"
     inkscape:window-height="1009"
     inkscape:window-x="1912"
     inkscape:window-y="-8"
     inkscape:window-maximized="1"
     inkscape:current-layer="layer1" /><defs
     id="defs1" /><g
     inkscape:label="Layer 1"
     inkscape:groupmode="layer"
     id="layer1"
     transform="translate(-2.0073062,-14.328322)"><g
       id="g1"
       transform="matrix(3.1249749,0,0,3.1249749,-3.4040869,24.618342)" /><path
       style="fill:#ffffff;fill-opacity:1;stroke:#ffffff;stroke-width:0;stroke-dasharray:none;stroke-opacity:1"
       d="M 10.397939,54.224069 C 9.4613499,53.929666 8.5915749,53.135459 8.2324949,52.246759 l -0.203767,-0.504306 -0.02343,-17.10996 c -0.01548,-11.299403 0.007,-17.274905 0.06636,-17.595665 0.194371,-1.051449 0.871653,-1.941355 1.840529,-2.418337 l 0.5894011,-0.290166 h 11.500299 11.5003 l 0.5073,0.237754 c 0.699061,0.327628 1.060752,0.62193 1.425779,1.160134 0.635296,0.936699 0.592483,-0.484913 0.566708,18.817089 l -0.02321,17.376049 -0.260008,0.529569 c -0.331202,0.67457 -0.925807,1.269177 -1.59936,1.599359 l -0.528768,0.259208 -11.409982,0.01687 c -9.260586,0.01365 -11.480195,-0.0052 -11.782705,-0.100288 z m 5.656184,-2.960834 0.288856,-0.258092 v -1.695051 -1.69505 l -0.288856,-0.258094 -0.288857,-0.258094 h -1.622992 c -2.299379,0 -2.29392,-0.0058 -2.249847,2.384096 l 0.02808,1.522604 0.288856,0.257888 0.288856,0.257887 h 1.633524 1.633524 z m 7.721084,0.152425 c 0.426142,-0.194164 0.484,-0.451682 0.484,-2.154245 v -1.561104 l -0.300728,-0.300728 -0.300728,-0.300729 h -1.609394 c -2.276678,0 -2.298698,0.02184 -2.29958,2.280415 -8.24e-4,2.10953 0.03299,2.14206 2.226262,2.14206 1.02749,0 1.648217,-0.03644 1.800168,-0.105665 z m 7.655334,-0.09545 c 0.164141,-0.110619 0.388939,-0.335413 0.499552,-0.499553 l 0.201117,-0.298435 v -4.506589 c 0,-5.835091 0.09501,-5.594716 -2.211236,-5.594716 -2.306243,0 -2.211238,-0.240375 -2.211238,5.594716 v 4.506589 l 0.201117,0.298435 c 0.416399,0.617896 0.653861,0.700669 2.010121,0.700669 1.114318,0 1.236214,-0.01623 1.510567,-0.201116 z m -15.376418,-6.778931 0.288856,-0.257887 0.02808,-1.522604 c 0.04404,-2.388207 0.04791,-2.384096 -2.239316,-2.384096 -2.287217,0 -2.283356,-0.0041 -2.239314,2.384096 l 0.02808,1.522604 0.288856,0.257887 0.288855,0.257886 h 1.633525 1.633524 z m 7.818821,0.101133 c 0.349351,-0.282984 0.386263,-0.483829 0.386263,-2.101738 v -1.562522 l -0.300728,-0.300728 -0.300728,-0.300729 h -1.609394 c -2.276678,0 -2.298698,0.02184 -2.29958,2.280415 -8.28e-4,2.120931 0.02266,2.142821 2.296761,2.140092 1.419023,-0.0017 1.664043,-0.02246 1.827406,-0.154787 z m -7.818821,-6.735049 0.288856,-0.258094 V 35.963178 34.277083 L 16.053874,33.987922 15.76477,33.69876 H 14.131885 12.499 l -0.289247,0.28893 -0.289247,0.28893 -0.02808,1.513674 c -0.04413,2.379584 -0.04833,2.375164 2.249847,2.375164 h 1.622991 z m 7.904356,-0.04264 0.300728,-0.300727 v -1.561105 c 0,-2.321811 0.01735,-2.304138 -2.262237,-2.304138 -2.169195,0 -2.235405,0.06526 -2.243201,2.211237 -0.008,2.220771 0.02687,2.254649 2.325159,2.25513 l 1.578823,3.31e-4 z m 7.68873,0.195059 c 0.427254,-0.19467 0.484001,-0.449994 0.484001,-2.177696 0,-2.206789 -0.01986,-2.226182 -2.280415,-2.227064 -2.114656,-8.27e-4 -2.143294,0.02933 -2.138924,2.252536 0.0034,1.703088 0.04726,1.911874 0.448849,2.134461 0.2826,0.156634 3.149643,0.17124 3.486489,0.01776 z M 15.859402,31.397569 c 0.827455,-0.427893 0.786474,-3.90148 -0.05016,-4.251045 -0.416287,-0.173936 -2.931684,-0.176877 -3.345646,-0.0039 -0.799102,0.333886 -0.889175,3.745964 -0.111406,4.220229 0.371791,0.22671 3.084019,0.253568 3.507205,0.03473 z m 7.93765,-0.04309 c 0.415669,-0.253433 0.462155,-0.46247 0.462155,-2.078191 0,-2.265525 -0.0075,-2.27277 -2.32032,-2.236103 l -1.5685,0.02487 -0.288939,0.289062 -0.28894,0.289061 v 1.576591 c 0,2.319085 -0.01224,2.30631 2.211237,2.309301 1.349261,0.0018 1.533382,-0.01611 1.793307,-0.174586 z m 8.076262,-0.155811 0.257896,-0.288856 v -1.622991 c 0,-2.299379 0.0058,-2.29392 -2.384094,-2.249849 l -1.522606,0.02808 -0.257887,0.288857 -0.257887,0.288856 v 1.622992 c 0,2.307829 -0.03915,2.270159 2.329252,2.241114 l 1.577431,-0.01935 z m 0.07225,-7.932423 c 0.950336,-0.491437 0.937861,-5.551276 -0.01481,-6.003343 -0.460084,-0.218324 -19.376237,-0.229262 -19.797443,-0.0114 -0.57988,0.299867 -0.610146,0.449185 -0.610513,3.01202 -3.63e-4,2.540631 0.03699,2.72202 0.621471,3.01777 0.349308,0.176752 19.458471,0.162277 19.801285,-0.015 z"
       id="path2" /></g></svg>
