<?xml version="1.0" encoding="UTF-8" standalone="no"?>
<!-- Created with Inkscape (http://www.inkscape.org/) -->

<svg
   width="40.000225mm"
   height="40.000225mm"
   viewBox="0 0 40.000225 40.000227"
   version="1.1"
   id="svg1"
   xml:space="preserve"
   inkscape:version="1.4.3 (0d15f75, 2025-12-25)"
   sodipodi:docname="pipe_icon.svg"
   xmlns:inkscape="http://www.inkscape.org/namespaces/inkscape"
   xmlns:sodipodi="http://sodipodi.sourceforge.net/DTD/sodipodi-0.dtd"
   xmlns="http://www.w3.org/2000/svg"
   xmlns:svg="http://www.w3.org/2000/svg"><sodipodi:namedview
     id="namedview1"
     pagecolor="#505050"
     bordercolor="#eeeeee"
     borderopacity="1"
     inkscape:showpageshadow="0"
     inkscape:pageopacity="0"
     inkscape:pagecheckerboard="0"
     inkscape:deskcolor="#505050"
     inkscape:document-units="mm"
     inkscape:zoom="4"
     inkscape:cx="67.000001"
     inkscape:cy="68.375001"
     inkscape:window-width="1920"
     inkscape:window-height="1009"
     inkscape:window-x="1912"
     inkscape:window-y="-8"
     inkscape:window-maximized="1"
     inkscape:current-layer="layer1" /><defs
     id="defs1" /><g
     inkscape:label="Layer 1"
     inkscape:groupmode="layer"
     id="layer1"
     transform="translate(-2.0073062,-14.328322)"><path
       style="fill:#ffffff;fill-opacity:1;stroke:none;stroke-width:0.3;stroke-dasharray:none;stroke-opacity:1"
       d="M 2.4973162,40.56652 C 2.3792824,40.506507 2.2386024,40.381691 2.1586478,40.266042 L 2.0218815,40.068217 2.0098282,34.433565 c -0.00813,-3.800951 0.00334,-5.692095 0.035233,-5.811163 0.062269,-0.232464 0.2473293,-0.447559 0.4741868,-0.551147 0.1616405,-0.07381 0.3127819,-0.08376 1.2726971,-0.08376 0.9669776,0 1.1102485,0.0097 1.2760882,0.08527 0.2299779,0.104988 0.4023205,0.324648 0.4780616,0.609319 l 0.057441,0.215891 h 0.6504978 c 0.7420766,0 0.9285774,0.05745 1.1123739,0.342692 l 0.1018398,0.15805 14.5274046,5.65e-4 11.387613,4.44e-4 3.13979,1.22e-4 0.140495,-0.175746 c 0.230226,-0.287986 0.36101,-0.326123 1.118338,-0.326123 h 0.662589 v -0.115885 c 0,-0.163808 0.152814,-0.444827 0.317761,-0.584349 0.235168,-0.19892 0.393791,-0.219474 1.573342,-0.203921 l 1.09684,0.01446 0.192631,0.136874 c 0.105947,0.07528 0.235298,0.218998 0.287445,0.319372 0.09469,0.18226 0.09481,0.190007 0.09481,5.893074 v 5.710571 l -0.136159,0.194331 c -0.07489,0.106878 -0.226174,0.242101 -0.33619,0.300488 -0.19323,0.102549 -0.236875,0.106155 -1.283624,0.106155 -1.157745,0 -1.291862,-0.02123 -1.526994,-0.241707 C 38.584426,40.296263 38.44447,40.01876 38.44447,39.872544 v -0.115882 h -0.662583 c -0.757328,0 -0.88811,-0.03814 -1.118337,-0.326127 l -0.140495,-0.175746 -14.527403,0.0017 -14.5274046,0.0019 -0.090771,0.14652 c -0.049924,0.08058 -0.1819033,0.19272 -0.2932827,0.24918 -0.1816484,0.09208 -0.2688988,0.102656 -0.8470057,0.102656 H 5.5926957 l -0.030388,0.180791 C 5.5202117,40.188012 5.3003086,40.47597 5.0713162,40.58048 4.901619,40.65794 4.7641699,40.66735 3.7902205,40.66823 2.7478496,40.669188 2.6902166,40.66463 2.4973146,40.566579 Z m 2.1954546,-3.034044 c 0.042322,-3.318576 0.049116,-8.611459 0.011147,-8.673214 -0.022561,-0.0367 -0.2981435,-0.05252 -0.9146457,-0.05252 h -0.882356 l -0.00498,0.627341 c -0.027351,3.454117 -0.062586,10.30384 -0.053079,10.318531 0.00667,0.01032 0.3543484,0.03263 0.772617,0.04962 0.4182684,0.01698 0.8237747,0.03422 0.9011245,0.03828 l 0.1406366,0.0074 z m 36.4451922,0.20531 c 0.01619,-1.160579 0.03274,-3.618728 0.03674,-5.462556 l 0.0072,-3.352413 -0.142955,-0.02938 c -0.07863,-0.01616 -0.505639,-0.03716 -0.948918,-0.04663 l -0.805965,-0.01724 -0.01174,5.452158 c -0.0064,2.998686 -0.002,5.477821 0.0099,5.509186 0.01628,0.04298 0.243833,0.05703 0.923873,0.05703 H 41.10837 Z M 6.6739885,34.327337 V 29.719236 H 6.1293527 5.5847148 v 4.608101 4.608099 h 0.5446379 0.5446358 z m 31.7704925,0 V 29.719236 H 37.87715 37.309821 v 4.608101 4.608099 h 0.567329 0.567331 z m -1.951616,0 V 30.22111 H 22.014598 7.5363312 v 4.106227 4.106226 H 22.014598 36.492865 Z M 9.9452931,32.201729 C 9.7615456,32.046304 9.748809,31.779717 9.9170511,31.61059 l 0.1114009,-0.111986 9.771489,0.0013 c 7.609636,0.0011 9.787421,0.01375 9.843502,0.05703 0.213044,0.164429 0.21861,0.505317 0.01093,0.669537 l -0.117908,0.09323 H 19.810713 10.08493 Z m 21.5716129,0.06477 c -0.229669,-0.111798 -0.267653,-0.530811 -0.06195,-0.683184 0.105801,-0.07837 0.240517,-0.08417 1.995103,-0.08619 1.775754,-0.002 1.888129,0.0027 1.997002,0.08404 0.214165,0.160009 0.16977,0.576689 -0.07331,0.688022 -0.147204,0.06742 -3.717946,0.06493 -3.85687,-0.0027 z"
       id="path1"
       sodipodi:nodetypes="cscscsscscssccccsscssscsssccsssscsscccssscsccccssscccsccscccsscccsccccccccccccccccccccccccccccccscccscccccsccscc" /></g></svg>
