<?xml version="1.0" encoding="UTF-8" standalone="no"?>
<!-- Created with Inkscape (http://www.inkscape.org/) -->

<svg
   width="40.000225mm"
   height="40.000225mm"
   viewBox="0 0 40.000225 40.000227"
   version="1.1"
   id="svg1"
   xml:space="preserve"
   inkscape:version="1.4.3 (0d15f75, 2025-12-25)"
   sodipodi:docname="pipe_icon.svg"
   xmlns:inkscape="http://www.inkscape.org/namespaces/inkscape"
   xmlns:sodipodi="http://sodipodi.sourceforge.net/DTD/sodipodi-0.dtd"
   xmlns="http://www.w3.org/2000/svg"
   xmlns:svg="http://www.w3.org/2000/svg"><sodipodi:namedview
     id="namedview1"
     pagecolor="#505050"
     bordercolor="#eeeeee"
     borderopacity="1"
     inkscape:showpageshadow="0"
     inkscape:pageopacity="0"
     inkscape:pagecheckerboard="0"
     inkscape:deskcolor="#505050"
     inkscape:document-units="mm"
     inkscape:zoom="2.8284271"
     inkscape:cx="90.863222"
     inkscape:cy="68.766135"
     inkscape:window-width="1920"
     inkscape:window-height="1009"
     inkscape:window-x="1912"
     inkscape:window-y="-8"
     inkscape:window-maximized="1"
     inkscape:current-layer="layer1" /><defs
     id="defs1" /><g
     inkscape:label="Layer 1"
     inkscape:groupmode="layer"
     id="layer1"
     transform="translate(-2.0073062,-14.328322)"><path
       style="fill:#ffffff;fill-opacity:1;stroke-width:0.3;stroke-dasharray:none;stroke:#f9f9f9;stroke-opacity:1"
       d="M 7.3738693,38.982527 C 7.2853439,38.937752 7.1798339,38.844629 7.119868,38.758345 l -0.1025747,-0.147593 -0.00904,-4.203913 c -0.0061,-2.835821 0.0025,-4.246769 0.026425,-4.335604 0.046702,-0.173437 0.185497,-0.333915 0.3556401,-0.4112 0.1212303,-0.05507 0.2345864,-0.06249 0.9545227,-0.06249 0.725233,0 0.8326862,0.0072 0.9570662,0.06362 0.1724834,0.07833 0.3017401,0.242214 0.3585459,0.454602 l 0.043081,0.161073 h 0.4878738 c 0.556557,0 0.696433,0.04286 0.83428,0.255676 l 0.07638,0.117918 10.895551,4.22e-4 8.540708,3.31e-4 2.354843,9.1e-5 0.105371,-0.131121 c 0.172668,-0.214864 0.270756,-0.243317 0.838752,-0.243317 h 0.496942 v -0.08646 c 0,-0.122214 0.114611,-0.331878 0.23832,-0.435972 0.176377,-0.148411 0.295344,-0.163746 1.180007,-0.152142 l 0.82263,0.01079 0.144473,0.102119 c 0.07946,0.05617 0.176473,0.163391 0.215584,0.238278 0.07102,0.135981 0.07111,0.141761 0.07111,4.396716 v 4.260554 L 36.90424,38.75571 c -0.05617,0.07974 -0.16963,0.180627 -0.252142,0.224189 -0.144923,0.07651 -0.177657,0.0792 -0.962718,0.0792 -0.868309,0 -0.968897,-0.01584 -1.145245,-0.180333 -0.104935,-0.09787 -0.209902,-0.30491 -0.209902,-0.414 v -0.08646 h -0.49694 c -0.567996,0 -0.666082,-0.02845 -0.838752,-0.243317 l -0.105371,-0.131121 -10.895551,0.0013 -10.895551,0.0014 -0.06808,0.109317 c -0.03744,0.06012 -0.136427,0.143784 -0.219962,0.185908 -0.136236,0.0687 -0.201674,0.07659 -0.635254,0.07659 h -0.48337 l -0.022789,0.134885 c -0.031573,0.186875 -0.1964989,0.401715 -0.3682435,0.479689 -0.1272726,0.05779 -0.2303594,0.06481 -0.9608214,0.06547 -0.781778,7.14e-4 -0.8250027,-0.0027 -0.9696792,-0.07584 z m 1.6465906,-2.263646 c 0.031742,-2.47593 0.036837,-6.424855 0.00836,-6.470929 -0.016921,-0.02738 -0.2236076,-0.03919 -0.6859842,-0.03919 H 7.6810691 l -0.00373,0.468048 c -0.020513,2.577054 -0.04694,7.687509 -0.039809,7.69847 0.005,0.0077 0.2657613,0.02435 0.5794627,0.03702 0.3137013,0.01267 0.6178309,0.02553 0.6758433,0.02856 l 0.1054774,0.0055 z m 27.3338891,0.153178 c 0.01214,-0.865887 0.02455,-2.699868 0.02755,-4.075515 l 0.0054,-2.501174 -0.107216,-0.02192 c -0.05897,-0.01206 -0.379229,-0.02772 -0.711689,-0.03479 l -0.604473,-0.01286 -0.0088,4.067757 c -0.0048,2.237266 -0.0015,4.086904 0.0074,4.110305 0.01221,0.03207 0.182875,0.04255 0.692905,0.04255 H 36.33213 Z M 10.506373,34.327584 v -3.43802 H 10.097896 9.689418 v 3.43802 3.43802 h 0.408478 0.408477 z m 23.827865,0 v -3.43802 H 33.90874 33.483243 v 3.43802 3.43802 h 0.425497 0.425498 z m -1.463712,0 V 31.264002 H 22.011828 11.15313 v 3.063582 3.063582 H 22.011828 32.870526 Z M 12.959851,32.741707 c -0.137811,-0.11596 -0.147363,-0.314856 -0.02118,-0.441039 l 0.08355,-0.08355 7.328616,10e-4 c 5.707226,8.25e-4 7.340564,0.01026 7.382625,0.04255 0.159783,0.122677 0.163958,0.377008 0.0082,0.499529 l -0.08843,0.06956 h -7.294313 -7.294336 z m 16.178706,0.04832 c -0.172251,-0.08341 -0.200739,-0.396028 -0.04646,-0.509711 0.07935,-0.05847 0.180387,-0.0628 1.496326,-0.0643 1.331816,-0.0015 1.416097,0.002 1.497752,0.0627 0.160623,0.11938 0.127327,0.430257 -0.05498,0.513321 -0.110403,0.0503 -2.788459,0.04844 -2.892652,-0.002 z"
       id="path1"
       sodipodi:nodetypes="cscscsscscssccccsscssscsssccsssscsscccssscsccccssscccsccscccsscccsccccccccccccccccccccccccccccccscccscccccsccscc" /><rect
       style="fill:none;fill-opacity:1;stroke:#f9f9f9;stroke-width:0.982289;stroke-linecap:round;stroke-linejoin:round;stroke-dasharray:none;stroke-opacity:1"
       id="rect1"
       width="39.017712"
       height="39.017712"
       x="2.4984508"
       y="14.819467"
       ry="4.9114437" /></g></svg>
