<?xml version="1.0" encoding="UTF-8" standalone="no"?>
<!-- Created with Inkscape (http://www.inkscape.org/) -->

<svg
   width="40.000225mm"
   height="40.000225mm"
   viewBox="0 0 40.000225 40.000227"
   version="1.1"
   id="svg1"
   xml:space="preserve"
   inkscape:version="1.4.3 (0d15f75, 2025-12-25)"
   sodipodi:docname="sprinkler_icon.svg"
   xmlns:inkscape="http://www.inkscape.org/namespaces/inkscape"
   xmlns:sodipodi="http://sodipodi.sourceforge.net/DTD/sodipodi-0.dtd"
   xmlns="http://www.w3.org/2000/svg"
   xmlns:svg="http://www.w3.org/2000/svg"><sodipodi:namedview
     id="namedview1"
     pagecolor="#505050"
     bordercolor="#eeeeee"
     borderopacity="1"
     inkscape:showpageshadow="0"
     inkscape:pageopacity="0"
     inkscape:pagecheckerboard="0"
     inkscape:deskcolor="#505050"
     inkscape:document-units="mm"
     inkscape:zoom="2"
     inkscape:cx="-97"
     inkscape:cy="166.25"
     inkscape:window-width="1920"
     inkscape:window-height="1009"
     inkscape:window-x="1912"
     inkscape:window-y="-8"
     inkscape:window-maximized="1"
     inkscape:current-layer="layer1" /><defs
     id="defs1"><clipPath
       clipPathUnits="userSpaceOnUse"
       id="clipPath4"><circle
         style="display:none;fill:none;fill-opacity:1;stroke:#ffffff;stroke-width:1.49999;stroke-dasharray:none;stroke-opacity:1"
         id="circle5"
         cx="22.007307"
         cy="34.328323"
         r="9.2500048"
         d="m 31.257312,34.328323 a 9.2500048,9.2500048 0 0 1 -9.250005,9.250005 9.2500048,9.2500048 0 0 1 -9.250005,-9.250005 9.2500048,9.2500048 0 0 1 9.250005,-9.250004 9.2500048,9.2500048 0 0 1 9.250005,9.250004 z" /><path
         id="lpe_path-effect5"
         style="fill:none;fill-opacity:1;stroke:#ffffff;stroke-width:1.49999;stroke-dasharray:none;stroke-opacity:1"
         class="powerclip"
         d="M -2.9926879,22.987495 H 47.0073 V 45.669149 H -2.9926879 Z M 31.257312,34.328323 a 9.2500048,9.2500048 0 0 0 -9.250005,-9.250004 9.2500048,9.2500048 0 0 0 -9.250005,9.250004 9.2500048,9.2500048 0 0 0 9.250005,9.250005 9.2500048,9.2500048 0 0 0 9.250005,-9.250005 z" /></clipPath><inkscape:path-effect
       effect="powerclip"
       message=""
       id="path-effect5"
       is_visible="true"
       lpeversion="1"
       inverse="true"
       flatten="false"
       hide_clip="false" /></defs><g
     inkscape:label="Layer 1"
     inkscape:groupmode="layer"
     id="layer1"
     transform="translate(-2.0071944,-14.32821)"><path
       style="fill:#ffffff;fill-opacity:1;stroke:none;stroke-width:0.3;stroke-dasharray:none;stroke-opacity:1"
       d="m 2.4973104,40.56652 c -0.118034,-0.06001 -0.258714,-0.184829 -0.338668,-0.300478 l -0.136766,-0.197825 -0.01205,-5.634652 c -0.0081,-3.800951 0.0033,-5.692095 0.03523,-5.811163 0.06227,-0.232464 0.24733,-0.447559 0.474187,-0.551147 0.161641,-0.07381 0.312782,-0.08376 1.272697,-0.08376 0.966978,0 1.110249,0.0097 1.276088,0.08527 0.229978,0.104988 0.402321,0.324648 0.478062,0.609319 l 0.05744,0.215891 h 0.650498 c 0.742076,0 0.928577,0.05745 1.112374,0.342692 l 0.101839,0.15805 14.5274046,5.65e-4 11.387613,4.44e-4 3.13979,1.22e-4 0.140495,-0.175746 c 0.230226,-0.287986 0.36101,-0.326123 1.118338,-0.326123 h 0.662589 v -0.115885 c 0,-0.163808 0.152814,-0.444827 0.317761,-0.584349 0.235168,-0.19892 0.393791,-0.219474 1.573342,-0.203921 l 1.09684,0.01446 0.192631,0.136874 c 0.105947,0.07528 0.235298,0.218998 0.287445,0.319372 0.09469,0.18226 0.09481,0.190007 0.09481,5.893074 v 5.710571 l -0.136159,0.194331 c -0.07489,0.106878 -0.226174,0.242101 -0.33619,0.300488 -0.19323,0.102549 -0.236875,0.106155 -1.283624,0.106155 -1.157745,0 -1.291862,-0.02123 -1.526994,-0.241707 -0.139913,-0.131179 -0.279869,-0.408682 -0.279869,-0.554898 v -0.115882 h -0.662583 c -0.757328,0 -0.88811,-0.03814 -1.118337,-0.326127 l -0.140495,-0.175746 -14.527403,0.0017 -14.5274046,0.0019 -0.09077,0.14652 c -0.04992,0.08058 -0.181903,0.19272 -0.293282,0.24918 -0.181649,0.09208 -0.268899,0.102656 -0.847006,0.102656 h -0.644492 l -0.03039,0.180791 c -0.0421,0.250476 -0.261999,0.538434 -0.490992,0.642944 -0.169697,0.07746 -0.307146,0.08687 -1.281095,0.08775 -1.042371,9.58e-4 -1.100004,-0.0036 -1.292906,-0.101651 z m 2.195455,-3.034044 c 0.04232,-3.318576 0.04912,-8.611459 0.01115,-8.673214 -0.02256,-0.0367 -0.298144,-0.05252 -0.914646,-0.05252 h -0.882356 l -0.005,0.627341 c -0.02735,3.454117 -0.06259,10.30384 -0.05308,10.318531 0.0067,0.01032 0.354349,0.03263 0.772617,0.04962 0.418269,0.01698 0.823775,0.03422 0.901125,0.03828 l 0.140636,0.0074 z m 36.4451916,0.20531 c 0.01619,-1.160579 0.03274,-3.618728 0.03674,-5.462556 l 0.0072,-3.352413 -0.142955,-0.02938 c -0.07863,-0.01616 -0.505639,-0.03716 -0.948918,-0.04663 l -0.805965,-0.01724 -0.01174,5.452158 c -0.0064,2.998686 -0.002,5.477821 0.0099,5.509186 0.01628,0.04298 0.243833,0.05703 0.923873,0.05703 h 0.902272 z M 6.6739834,34.327337 v -4.608101 h -0.544636 -0.544638 v 4.608101 4.608099 h 0.544638 0.544636 z m 31.7704916,0 v -4.608101 h -0.567331 -0.567329 v 4.608101 4.608099 h 0.567329 0.567331 z m -1.951616,0 V 30.22111 H 22.014592 7.5363254 v 4.106227 4.106226 H 22.014592 36.492859 Z M 9.9452874,32.201729 c -0.183747,-0.155425 -0.196484,-0.422012 -0.02824,-0.591139 l 0.1114006,-0.111986 9.771489,0.0013 c 7.609636,0.0011 9.787421,0.01375 9.843502,0.05703 0.213044,0.164429 0.21861,0.505317 0.01093,0.669537 l -0.117908,0.09323 H 19.810709 10.084926 Z M 31.5169,32.266499 c -0.229669,-0.111798 -0.267653,-0.530811 -0.06195,-0.683184 0.105801,-0.07837 0.240517,-0.08417 1.995103,-0.08619 1.775754,-0.002 1.888129,0.0027 1.997002,0.08404 0.214165,0.160009 0.16977,0.576689 -0.07331,0.688022 -0.147204,0.06742 -3.717946,0.06493 -3.85687,-0.0027 z"
       id="path1"
       sodipodi:nodetypes="cscscsscscssccccsscssscsssccsssscsscccssscsccccssscccsccscccsscccsccccccccccccccccccccccccccccccscccscccccsccscc"
       clip-path="url(#clipPath4)"
       inkscape:path-effect="#path-effect5"
       inkscape:original-d="m 2.4973104,40.56652 c -0.118034,-0.06001 -0.258714,-0.184829 -0.338668,-0.300478 l -0.136766,-0.197825 -0.01205,-5.634652 c -0.0081,-3.800951 0.0033,-5.692095 0.03523,-5.811163 0.06227,-0.232464 0.24733,-0.447559 0.474187,-0.551147 0.161641,-0.07381 0.312782,-0.08376 1.272697,-0.08376 0.966978,0 1.110249,0.0097 1.276088,0.08527 0.229978,0.104988 0.402321,0.324648 0.478062,0.609319 l 0.05744,0.215891 h 0.650498 c 0.742076,0 0.928577,0.05745 1.112374,0.342692 l 0.101839,0.15805 14.5274046,5.65e-4 11.387613,4.44e-4 3.13979,1.22e-4 0.140495,-0.175746 c 0.230226,-0.287986 0.36101,-0.326123 1.118338,-0.326123 h 0.662589 v -0.115885 c 0,-0.163808 0.152814,-0.444827 0.317761,-0.584349 0.235168,-0.19892 0.393791,-0.219474 1.573342,-0.203921 l 1.09684,0.01446 0.192631,0.136874 c 0.105947,0.07528 0.235298,0.218998 0.287445,0.319372 0.09469,0.18226 0.09481,0.190007 0.09481,5.893074 v 5.710571 l -0.136159,0.194331 c -0.07489,0.106878 -0.226174,0.242101 -0.33619,0.300488 -0.19323,0.102549 -0.236875,0.106155 -1.283624,0.106155 -1.157745,0 -1.291862,-0.02123 -1.526994,-0.241707 -0.139913,-0.131179 -0.279869,-0.408682 -0.279869,-0.554898 v -0.115882 h -0.662583 c -0.757328,0 -0.88811,-0.03814 -1.118337,-0.326127 l -0.140495,-0.175746 -14.527403,0.0017 -14.5274046,0.0019 -0.09077,0.14652 c -0.04992,0.08058 -0.181903,0.19272 -0.293282,0.24918 -0.181649,0.09208 -0.268899,0.102656 -0.847006,0.102656 h -0.644492 l -0.03039,0.180791 c -0.0421,0.250476 -0.261999,0.538434 -0.490992,0.642944 -0.169697,0.07746 -0.307146,0.08687 -1.281095,0.08775 -1.042371,9.58e-4 -1.100004,-0.0036 -1.292906,-0.101651 z m 2.195455,-3.034044 c 0.04232,-3.318576 0.04912,-8.611459 0.01115,-8.673214 -0.02256,-0.0367 -0.298144,-0.05252 -0.914646,-0.05252 h -0.882356 l -0.005,0.627341 c -0.02735,3.454117 -0.06259,10.30384 -0.05308,10.318531 0.0067,0.01032 0.354349,0.03263 0.772617,0.04962 0.418269,0.01698 0.823775,0.03422 0.901125,0.03828 l 0.140636,0.0074 z m 36.4451916,0.20531 c 0.01619,-1.160579 0.03274,-3.618728 0.03674,-5.462556 l 0.0072,-3.352413 -0.142955,-0.02938 c -0.07863,-0.01616 -0.505639,-0.03716 -0.948918,-0.04663 l -0.805965,-0.01724 -0.01174,5.452158 c -0.0064,2.998686 -0.002,5.477821 0.0099,5.509186 0.01628,0.04298 0.243833,0.05703 0.923873,0.05703 h 0.902272 z M 6.6739834,34.327337 v -4.608101 h -0.544636 -0.544638 v 4.608101 4.608099 h 0.544638 0.544636 z m 31.7704916,0 v -4.608101 h -0.567331 -0.567329 v 4.608101 4.608099 h 0.567329 0.567331 z m -1.951616,0 V 30.22111 H 22.014592 7.5363254 v 4.106227 4.106226 H 22.014592 36.492859 Z M 9.9452874,32.201729 c -0.183747,-0.155425 -0.196484,-0.422012 -0.02824,-0.591139 l 0.1114006,-0.111986 9.771489,0.0013 c 7.609636,0.0011 9.787421,0.01375 9.843502,0.05703 0.213044,0.164429 0.21861,0.505317 0.01093,0.669537 l -0.117908,0.09323 H 19.810709 10.084926 Z M 31.5169,32.266499 c -0.229669,-0.111798 -0.267653,-0.530811 -0.06195,-0.683184 0.105801,-0.07837 0.240517,-0.08417 1.995103,-0.08619 1.775754,-0.002 1.888129,0.0027 1.997002,0.08404 0.214165,0.160009 0.16977,0.576689 -0.07331,0.688022 -0.147204,0.06742 -3.717946,0.06493 -3.85687,-0.0027 z"
       transform="translate(-1.1164558e-4,-1.1156274e-4)" /><circle
       style="fill:#434343;fill-opacity:1;stroke:#ffffff;stroke-width:1.5;stroke-dasharray:none;stroke-opacity:1"
       id="circle4"
       cx="22.007195"
       cy="34.328209"
       r="9.2500048" /><path
       style="fill:none;stroke:#ffffff;stroke-width:1.25;stroke-dasharray:none;stroke-opacity:1"
       d="M 15.643233,27.964249 28.371155,40.692171"
       id="path2"
       sodipodi:nodetypes="cc" /><path
       style="fill:none;stroke:#ffffff;stroke-width:1.25;stroke-dasharray:none;stroke-opacity:1"
       d="M 15.643233,40.692171 28.371155,27.964249"
       id="path3"
       sodipodi:nodetypes="cc" /></g></svg>
