<?xml version="1.0" encoding="UTF-8" standalone="no"?>
<!-- Created with Inkscape (http://www.inkscape.org/) -->

<svg
   width="40.000225mm"
   height="40.000225mm"
   viewBox="0 0 40.000225 40.000227"
   version="1.1"
   id="svg1"
   xml:space="preserve"
   inkscape:version="1.4.3 (0d15f75, 2025-12-25)"
   sodipodi:docname="sprinkler_icon.svg"
   xmlns:inkscape="http://www.inkscape.org/namespaces/inkscape"
   xmlns:sodipodi="http://sodipodi.sourceforge.net/DTD/sodipodi-0.dtd"
   xmlns="http://www.w3.org/2000/svg"
   xmlns:svg="http://www.w3.org/2000/svg"><sodipodi:namedview
     id="namedview1"
     pagecolor="#505050"
     bordercolor="#eeeeee"
     borderopacity="1"
     inkscape:showpageshadow="0"
     inkscape:pageopacity="0"
     inkscape:pagecheckerboard="0"
     inkscape:deskcolor="#505050"
     inkscape:document-units="mm"
     inkscape:zoom="2"
     inkscape:cx="133.5"
     inkscape:cy="83.75"
     inkscape:window-width="1920"
     inkscape:window-height="1009"
     inkscape:window-x="1912"
     inkscape:window-y="-8"
     inkscape:window-maximized="1"
     inkscape:current-layer="layer1" /><defs
     id="defs1" /><g
     inkscape:label="Layer 1"
     inkscape:groupmode="layer"
     id="layer1"
     transform="translate(-2.0071944,-14.32821)"><path
       style="fill:#ffffff;fill-opacity:1;stroke:#f9f9f9;stroke-width:0;stroke-dasharray:none;stroke-opacity:1"
       d="m 21.519659,48.544156 c -0.574527,-0.230112 -1.012839,-0.806241 -1.012839,-1.331301 0,-0.142807 0.09628,-0.546471 0.213961,-0.897032 0.226093,-0.673518 1.196558,-2.686107 1.295234,-2.686107 0.08576,0 1.120666,2.1355 1.293265,2.668624 0.08167,0.252267 0.150643,0.671582 0.153268,0.93181 0.006,0.594768 -0.171351,0.859699 -0.785838,1.173899 -0.460678,0.235553 -0.81241,0.278146 -1.157051,0.140107 z m -7.142332,-0.961692 c -0.37277,-0.204839 -0.542547,-0.374657 -0.717726,-0.717889 -0.422075,-0.826982 -0.01367,-1.567329 1.749186,-3.170863 0.687819,-0.625656 0.808774,-0.706177 0.858574,-0.571555 0.03188,0.08619 0.102558,0.679767 0.157058,1.319076 0.200838,2.355941 -0.128412,3.135974 -1.368471,3.242056 -0.298502,0.02553 -0.504313,-0.005 -0.678621,-0.100825 z m 14.093662,0.01049 c -0.5928,-0.276183 -0.822964,-0.641251 -0.910808,-1.444654 -0.05666,-0.518242 0.08477,-2.746278 0.192878,-3.038533 0.04672,-0.126315 0.173814,-0.04197 0.792669,0.526114 1.405562,1.290243 1.964761,2.036148 1.964761,2.620757 0,0.303682 -0.247296,0.864894 -0.467128,1.0601 -0.418505,0.371621 -1.107722,0.492695 -1.572372,0.276216 z M 8.0810471,44.869681 C 7.3642203,44.657052 6.9336048,43.998992 7.0184898,43.245893 c 0.077902,-0.691173 0.4896601,-1.03513 1.688016,-1.41007 0.6562688,-0.205334 2.4463352,-0.583051 2.5010302,-0.527738 0.03566,0.03606 -0.584913,1.373719 -0.94165,2.029752 -0.3519251,0.647179 -0.7985013,1.254716 -1.0370509,1.410836 -0.2580352,0.168873 -0.7954222,0.225527 -1.147788,0.121008 z m 26.8849119,-0.06524 c -0.231227,-0.105004 -0.458322,-0.315491 -0.695327,-0.644475 -0.434043,-0.602488 -1.540478,-2.811708 -1.427104,-2.849499 0.132308,-0.0441 1.82417,0.316759 2.507503,0.53483 1.154817,0.36854 1.569471,0.718829 1.645091,1.389736 0.08625,0.765266 -0.307798,1.397175 -0.999331,1.602539 -0.537418,0.159595 -0.611688,0.157209 -1.030832,-0.03313 z M 21.37278,40.889616 c -0.188793,-0.0883 -0.445485,-0.294573 -0.57043,-0.458384 -0.320467,-0.420152 -0.352963,-0.826251 -0.124137,-1.551291 0.215831,-0.683865 1.200682,-2.755721 1.309925,-2.755721 0.09319,0 1.053655,1.980143 1.270403,2.619132 0.0919,0.270915 0.167085,0.659844 0.167085,0.864287 0,1.035646 -1.104626,1.725472 -2.052846,1.281977 z m -6.786967,-1.323002 c 0,0.566182 -0.912287,-0.793861 -0.915507,-1.424221 -0.0034,-0.668742 0.281998,-1.001168 1.290782,-1.503404 0.679965,-0.338529 2.518541,-0.984529 2.592256,-0.910815 0.08461,0.08461 -0.734167,2.382099 -1.056611,2.964861 -0.412979,0.746394 -0.683977,0.935651 -1.327159,0.926855 -0.252267,-0.0034 -0.583761,-0.126779 -0.583761,-0.05328 z M 28.1371,39.463407 c 0,-0.163646 -0.378477,-0.371741 -0.534901,-0.629839 -0.275109,-0.453927 -1.217977,-3.027123 -1.138367,-3.10673 0.07145,-0.07146 1.911507,0.576487 2.605714,0.917551 0.375073,0.184273 0.806639,0.463789 0.959036,0.621144 0.262205,0.270736 0.277084,0.318658 0.277084,0.892377 0,0.539635 -0.02642,0.640906 -0.240328,0.921334 -0.13218,0.173281 -0.365522,0.367365 -0.518537,0.4313 -0.407067,0.170084 -1.409701,0.311992 -1.409701,-0.04713 z M 16.863764,34.039768 c -0.221604,-0.0905 -0.359878,-0.331299 -0.359878,-0.626722 0,-0.246622 0.524684,-0.968156 1.097149,-1.508771 0.658377,-0.621749 0.642708,-0.616936 2.007825,-0.616936 h 1.233186 l -0.02167,-3.89869 -0.02167,-3.898691 h -2.692564 c -2.302671,0 -2.704007,0.01812 -2.771587,0.125092 -0.140246,0.222001 -0.09942,1.605312 0.05384,1.824116 0.07448,0.106335 0.496665,0.427136 0.938187,0.712893 2.431461,1.573649 3.527488,2.327714 3.645827,2.508322 0.371706,0.567296 0.146291,1.39709 -0.464117,1.708497 -0.403794,0.206 -0.613804,0.208425 -1.046014,0.01209 -0.274133,-0.124528 -3.645689,-2.295686 -4.914899,-3.165006 -0.600944,-0.411606 -0.66762,-0.620397 -0.697191,-2.183198 -0.02181,-1.152705 -0.04808,-1.392927 -0.16188,-1.480253 -0.08979,-0.06891 -0.44852,-0.104286 -1.058091,-0.104373 -1.576116,-2.25e-4 -1.8034631,-0.234134 -1.8642716,-1.918107 -0.036098,-0.999807 -0.027884,-1.073088 0.1391018,-1.240072 l 0.1774728,-0.177473 11.904556,0.0013 c 7.362389,8.25e-4 11.952286,0.03147 12.029649,0.08041 0.198301,0.125433 0.176932,2.277208 -0.02635,2.653176 -0.264855,0.489846 -0.559375,0.600256 -1.602137,0.600609 -1.337065,4.55e-4 -1.29032,-0.05572 -1.29032,1.550516 0,1.448302 -0.05984,1.691558 -0.509111,2.069705 -0.582425,0.490218 -4.966127,3.305593 -5.283508,3.393265 -0.428404,0.118341 -0.845957,-0.0025 -1.167267,-0.337912 -0.186443,-0.194605 -0.247547,-0.347893 -0.274997,-0.689866 -0.06167,-0.768252 0.05977,-0.877153 3.315344,-2.973198 0.66507,-0.428194 1.274892,-0.8537 1.355159,-0.945569 0.118839,-0.136015 0.145941,-0.327379 0.145941,-1.030503 0,-0.768337 -0.01777,-0.872979 -0.161307,-0.949798 -0.101263,-0.0542 -1.125653,-0.08634 -2.752017,-0.08634 h -2.590709 v 3.919538 3.91954 l 1.18837,3.11e-4 c 1.038369,2.71e-4 1.222651,0.02122 1.459951,0.165897 0.325728,0.198598 0.919691,0.801255 1.364789,1.384762 0.269507,0.353315 0.315561,0.468839 0.272581,0.683742 -0.02845,0.142227 -0.126387,0.326187 -0.217649,0.408798 -0.155507,0.14077 -0.480936,0.151243 -5.181731,0.166761 -2.791688,0.0093 -5.096589,-0.01644 -5.197989,-0.05784 z"
       id="path1"
       sodipodi:nodetypes="sssssssscssssscssssssssssssssssssssssssssssscssscsssscssssssscssscccscscssssscccscccssssscsssssscccscsssccc" /><rect
       style="fill:none;fill-opacity:1;stroke:#f9f9f9;stroke-width:0.982289;stroke-linecap:round;stroke-linejoin:round;stroke-dasharray:none;stroke-opacity:1"
       id="rect1"
       width="39.017712"
       height="39.017712"
       x="2.4983389"
       y="14.819354"
       ry="4.9114437" /></g></svg>
