<?xml version="1.0" encoding="UTF-8" standalone="no"?>
<!-- Created with Inkscape (http://www.inkscape.org/) -->

<svg
   width="40.000225mm"
   height="40.000225mm"
   viewBox="0 0 40.000225 40.000227"
   version="1.1"
   id="svg1"
   xml:space="preserve"
   inkscape:version="1.4.3 (0d15f75, 2025-12-25)"
   sodipodi:docname="sprinkler_icon.svg"
   xmlns:inkscape="http://www.inkscape.org/namespaces/inkscape"
   xmlns:sodipodi="http://sodipodi.sourceforge.net/DTD/sodipodi-0.dtd"
   xmlns="http://www.w3.org/2000/svg"
   xmlns:svg="http://www.w3.org/2000/svg"><sodipodi:namedview
     id="namedview1"
     pagecolor="#505050"
     bordercolor="#eeeeee"
     borderopacity="1"
     inkscape:showpageshadow="0"
     inkscape:pageopacity="0"
     inkscape:pagecheckerboard="0"
     inkscape:deskcolor="#505050"
     inkscape:document-units="mm"
     inkscape:zoom="2"
     inkscape:cx="133.5"
     inkscape:cy="83.75"
     inkscape:window-width="1920"
     inkscape:window-height="1009"
     inkscape:window-x="1912"
     inkscape:window-y="-8"
     inkscape:window-maximized="1"
     inkscape:current-layer="layer1" /><defs
     id="defs1" /><g
     inkscape:label="Layer 1"
     inkscape:groupmode="layer"
     id="layer1"
     transform="translate(-2.0071944,-14.32821)"><path
       style="fill:#ffffff;fill-opacity:1;stroke:#f9f9f9;stroke-width:0;stroke-dasharray:none;stroke-opacity:1"
       d="m 21.356241,53.230363 c -0.766037,-0.306816 -1.350453,-1.074988 -1.350453,-1.775068 0,-0.19041 0.128374,-0.728628 0.285282,-1.196043 0.301457,-0.898024 1.595411,-3.581476 1.726979,-3.581476 0.114346,0 1.494221,2.847333 1.724353,3.558165 0.108893,0.336356 0.200857,0.895443 0.204357,1.242414 0.008,0.793024 -0.228468,1.146265 -1.047784,1.565199 -0.614237,0.31407 -1.083213,0.370861 -1.542734,0.186809 z m -9.52311,-1.282256 c -0.497027,-0.273119 -0.723396,-0.499543 -0.956968,-0.957186 -0.562767,-1.102642 -0.01823,-2.089772 2.332248,-4.227817 0.917092,-0.834208 1.078365,-0.94157 1.144765,-0.762073 0.04251,0.11492 0.136744,0.906356 0.209411,1.758768 0.267784,3.141254 -0.171216,4.181298 -1.824628,4.322741 -0.398003,0.03404 -0.672418,-0.0067 -0.904828,-0.134433 z m 18.79155,0.01399 c -0.7904,-0.368244 -1.097285,-0.855001 -1.214411,-1.926205 -0.07555,-0.690989 0.113027,-3.661704 0.257171,-4.051377 0.06229,-0.168421 0.231752,-0.05596 1.056892,0.701485 1.874083,1.720324 2.619681,2.714864 2.619681,3.494343 0,0.404909 -0.329728,1.153192 -0.622837,1.413466 -0.558007,0.495495 -1.476963,0.656927 -2.096496,0.368288 z M 3.4380897,48.331063 c -0.955769,-0.283506 -1.529923,-1.160919 -1.416743,-2.165051 0.103869,-0.921564 0.65288,-1.380174 2.250688,-1.880094 0.875025,-0.273778 3.261781,-0.777401 3.334707,-0.70365 0.04755,0.04808 -0.779884,1.831625 -1.255533,2.706336 -0.469233,0.862905 -1.064668,1.672955 -1.382735,1.881115 -0.344047,0.225164 -1.060563,0.300702 -1.530384,0.161344 z m 35.8465513,-0.08699 c -0.308302,-0.140005 -0.611096,-0.420655 -0.927102,-0.8593 -0.578724,-0.803317 -2.053971,-3.748944 -1.902806,-3.799332 0.176411,-0.0588 2.432227,0.422345 3.343338,0.713106 1.539756,0.491387 2.092628,0.958439 2.193455,1.852982 0.115,1.020355 -0.410398,1.8629 -1.332442,2.136719 -0.716557,0.212793 -0.815584,0.209612 -1.374443,-0.04418 z M 21.160402,43.024309 c -0.251724,-0.117733 -0.59398,-0.392764 -0.760574,-0.611179 -0.427289,-0.560202 -0.470617,-1.101668 -0.165516,-2.068388 0.287775,-0.91182 1.60091,-3.674295 1.746567,-3.674295 0.124254,0 1.404874,2.640191 1.693871,3.492177 0.122533,0.36122 0.22278,0.879792 0.22278,1.152382 0,1.380862 -1.472835,2.30063 -2.737128,1.709303 z m -9.04929,-1.764003 c 0,0.75491 -1.216383,-1.058481 -1.220676,-1.898961 -0.0045,-0.891656 0.375997,-1.334891 1.721043,-2.004539 0.90662,-0.451372 3.358055,-1.312705 3.456341,-1.21442 0.112814,0.112813 -0.978889,3.176132 -1.408815,3.953148 -0.550638,0.995192 -0.911969,1.247535 -1.769545,1.235807 -0.336356,-0.0045 -0.778348,-0.169039 -0.778348,-0.07104 z m 18.068384,-0.137609 c 0,-0.218195 -0.504636,-0.495655 -0.713202,-0.839785 -0.366812,-0.605236 -1.623969,-4.036165 -1.517823,-4.142307 0.09527,-0.09528 2.548677,0.768649 3.474286,1.223401 0.500097,0.245697 1.075519,0.618385 1.278715,0.828192 0.349606,0.360981 0.369445,0.424877 0.369445,1.189836 0,0.719514 -0.03523,0.854542 -0.320437,1.228446 -0.17624,0.231041 -0.487363,0.48982 -0.691383,0.575066 -0.542756,0.226779 -1.879601,0.41599 -1.879601,-0.06284 z M 15.14838,33.891178 c -0.295472,-0.120667 -0.479837,-0.441732 -0.479837,-0.835629 0,-0.32883 0.699579,-1.290875 1.462865,-2.011695 0.877836,-0.828999 0.856944,-0.822582 2.6771,-0.822582 h 1.644248 l -0.02889,-5.198253 -0.02889,-5.198255 H 16.80489 c -3.070228,0 -3.605343,0.02416 -3.695449,0.166789 -0.186995,0.296002 -0.13256,2.140416 0.07179,2.432155 0.09931,0.14178 0.66222,0.569515 1.250916,0.950524 3.241949,2.098199 4.703318,3.103619 4.861103,3.34443 0.495608,0.756394 0.195055,1.862786 -0.618822,2.277996 -0.538392,0.274666 -0.818406,0.2779 -1.394686,0.01612 -0.36551,-0.166038 -4.860919,-3.060915 -6.553199,-4.220009 -0.8012583,-0.548808 -0.8901603,-0.827196 -0.9295883,-2.91093 -0.02908,-1.53694 -0.06411,-1.857236 -0.21584,-1.973671 -0.11972,-0.09188 -0.598026,-0.139048 -1.410788,-0.139164 -2.101488,-3e-4 -2.404617,-0.312179 -2.485695,-2.557476 -0.04813,-1.333076 -0.03718,-1.430784 0.185469,-1.65343 l 0.23663,-0.23663 15.8727423,0.0017 c 9.816519,0.0011 15.936382,0.04196 16.039533,0.107213 0.264401,0.167244 0.235909,3.036278 -0.03513,3.537568 -0.35314,0.653129 -0.745834,0.800342 -2.136183,0.800813 -1.782754,6.06e-4 -1.720427,-0.07429 -1.720427,2.067354 0,1.93107 -0.07979,2.255411 -0.678815,2.759607 -0.776566,0.653624 -6.621503,4.407458 -7.044677,4.524354 -0.571206,0.157788 -1.127943,-0.0033 -1.556356,-0.45055 -0.248591,-0.259473 -0.330063,-0.463857 -0.366663,-0.919821 -0.08223,-1.024336 0.07969,-1.169537 4.420459,-3.964264 0.88676,-0.570926 1.699856,-1.138267 1.806879,-1.260759 0.158452,-0.181353 0.194588,-0.436505 0.194588,-1.374004 0,-1.024449 -0.02369,-1.163972 -0.215076,-1.266397 -0.135018,-0.07227 -1.500871,-0.11512 -3.669357,-0.11512 H 23.56397 v 5.22605 5.226054 l 1.584493,4.15e-4 c 1.384492,3.61e-4 1.630201,0.02829 1.946601,0.221196 0.434304,0.264797 1.226255,1.06834 1.819719,1.846349 0.359343,0.471087 0.420748,0.625119 0.363442,0.911656 -0.03793,0.189636 -0.168516,0.434916 -0.290199,0.545064 -0.207343,0.187694 -0.641248,0.201658 -6.908975,0.222348 -3.722251,0.0124 -6.795452,-0.02192 -6.930652,-0.07712 z"
       id="path1"
       sodipodi:nodetypes="sssssssscssssscssssssssssssssssssssssssssssscssscsssscssssssscssscccscscssssscccscccssssscsssssscccscsssccc" /></g></svg>
