<?xml version="1.0" encoding="UTF-8" standalone="no"?>
<!-- Created with Inkscape (http://www.inkscape.org/) -->

<svg
   width="40.000225mm"
   height="40.000225mm"
   viewBox="0 0 40.000225 40.000227"
   version="1.1"
   id="svg1"
   xml:space="preserve"
   inkscape:version="1.4.3 (0d15f75, 2025-12-25)"
   sodipodi:docname="supply_icon.svg"
   xmlns:inkscape="http://www.inkscape.org/namespaces/inkscape"
   xmlns:sodipodi="http://sodipodi.sourceforge.net/DTD/sodipodi-0.dtd"
   xmlns="http://www.w3.org/2000/svg"
   xmlns:svg="http://www.w3.org/2000/svg"><sodipodi:namedview
     id="namedview1"
     pagecolor="#505050"
     bordercolor="#eeeeee"
     borderopacity="1"
     inkscape:showpageshadow="0"
     inkscape:pageopacity="0"
     inkscape:pagecheckerboard="0"
     inkscape:deskcolor="#505050"
     inkscape:document-units="mm"
     inkscape:zoom="2.8284272"
     inkscape:cx="27.22361"
     inkscape:cy="71.241006"
     inkscape:window-width="1920"
     inkscape:window-height="1009"
     inkscape:window-x="1912"
     inkscape:window-y="-8"
     inkscape:window-maximized="1"
     inkscape:current-layer="layer1" /><defs
     id="defs1" /><g
     inkscape:label="Layer 1"
     inkscape:groupmode="layer"
     id="layer1"
     transform="translate(-2.0073062,-14.328322)"><g
       id="g1"
       transform="matrix(3.1249749,0,0,3.1249749,-3.4040869,24.618342)" /><path
       style="fill:#ffffff;fill-opacity:1;stroke:#ffffff;stroke-width:1;stroke-miterlimit:3.8;stroke-dasharray:none;stroke-opacity:1"
       d="m 20.650393,43.611174 c -2.426388,-0.357722 -4.656591,-1.682933 -6.144525,-3.651142 l -0.40555,-0.536452 h -3.896906 -3.89691 v 0.432701 c 0,0.515826 -0.1242327,0.845245 -0.4675479,1.239693 -0.8984335,1.032252 -2.4976056,0.818952 -3.1184216,-0.415942 L 2.5073101,40.255907 v -5.98 c 0,-4.466512 0.02385,-6.061483 0.094296,-6.301943 0.1258307,-0.429629 0.7681395,-1.077584 1.1940229,-1.204523 1.2816654,-0.382009 2.5042316,0.495811 2.509174,1.801625 l 0.00178,0.449744 h 3.897987 3.897986 l 0.333202,-0.46158 c 0.412155,-0.570955 1.369754,-1.535619 1.989082,-2.003762 0.865046,-0.653876 2.404309,-1.365894 3.469671,-1.604968 l 1.92732,-0.0011 2.249247,-0.0012 c 2.030917,0.439385 4.075102,1.764548 5.386656,3.491952 l 0.440859,0.580642 h 3.865978 3.865979 v -0.29867 c 0,-1.51123 1.481586,-2.495998 2.776143,-1.84522 0.221661,0.111426 0.508636,0.331411 0.637728,0.488851 0.467935,0.5707 0.462857,0.495708 0.462857,6.835984 0,3.806709 -0.028,5.890181 -0.08208,6.10623 -0.118859,0.47479 -0.541983,1.021015 -0.942434,1.216574 -1.365625,0.666902 -2.852247,-0.272483 -2.852247,-1.802313 v -0.29867 l -3.896109,0.002 -3.896109,0.002 -0.254172,0.378172 c -0.864173,1.285758 -2.409084,2.510224 -4.011371,3.179325 -1.564562,0.653348 -3.26782,0.869984 -4.922299,0.626064 z m 3.274851,-1.011516 c 3.03878,-0.715118 5.455004,-3.07378 6.306901,-6.156649 0.250094,-0.905049 0.340972,-2.620221 0.189405,-3.574643 -0.291834,-1.837642 -1.228836,-3.625403 -2.568192,-4.899988 -3.40524,-3.240579 -8.689815,-3.132702 -11.938835,0.243716 -0.716647,0.744749 -1.143037,1.334951 -1.544882,2.138393 -2.438774,4.876062 0.213891,10.769776 5.488216,12.19376 1.15433,0.31165 2.878717,0.335142 4.067387,0.0554 z m -3.270102,-2.74567 c -2.218513,-0.724383 -3.519815,-3.196599 -2.797463,-5.314617 0.235429,-0.690304 0.727254,-1.629964 1.366103,-2.610021 0.786335,-1.206314 2.434959,-3.450764 2.600249,-3.540004 0.0731,-0.03946 0.202728,-0.04552 0.288075,-0.01352 0.167569,0.06294 1.718542,2.134999 2.581181,3.448371 1.475286,2.246121 1.868042,3.544219 1.501672,4.96318 -0.384266,1.488267 -1.642687,2.757753 -3.117983,3.145397 -0.68681,0.180466 -1.731858,0.14644 -2.421834,-0.07885 z m 2.203792,-0.785353 c 0.625595,-0.16438 1.180115,-0.500558 1.646841,-0.99839 0.825397,-0.880406 1.137593,-2.054245 0.826982,-3.109385 -0.171414,-0.582288 -0.695866,-1.612061 -1.266884,-2.487557 -0.40399,-0.619405 -1.842079,-2.649068 -2.020346,-2.851438 -0.0309,-0.03508 -0.38693,0.387287 -0.791171,0.938597 -2.023209,2.759281 -2.697397,4.067654 -2.697397,5.234747 0,2.204003 2.148933,3.839152 4.301975,3.273426 z M 5.1059779,40.595631 c 0.099063,-0.09387 0.2184549,-0.264086 0.265327,-0.378234 0.060018,-0.146169 0.079053,-1.961347 0.064382,-6.138287 L 5.4148445,28.148364 5.1303396,27.885369 C 4.7615997,27.544489 4.3915697,27.47133 4.0082247,27.663512 c -0.159018,0.07972 -0.3611568,0.244302 -0.4491952,0.36574 -0.1578196,0.217685 -0.1604008,0.302496 -0.183319,6.022657 -0.015349,3.829245 0.00404,5.89653 0.056844,6.080303 0.2036571,0.707995 1.1413474,0.967671 1.6734188,0.463419 z m 34.9908691,0.130033 c 0.09853,-0.05515 0.246573,-0.20349 0.329013,-0.329647 0.144843,-0.221656 0.149904,-0.429682 0.150399,-6.181802 l 5.86e-4,-5.952427 -0.17698,-0.265771 c -0.113795,-0.170878 -0.293731,-0.306797 -0.503974,-0.380682 -0.287616,-0.101065 -0.366378,-0.101065 -0.653991,0 -0.210243,0.07389 -0.390183,0.209804 -0.503972,0.380682 l -0.176983,0.265771 v 5.936757 c 0,6.489009 -0.01591,6.257228 0.446799,6.510497 0.261006,0.142865 0.847671,0.151818 1.089179,0.01661 z M 13.311613,37.864195 c -0.146328,-0.341433 -0.357745,-0.966186 -0.469811,-1.388339 -0.185703,-0.699546 -0.20391,-0.89922 -0.205484,-2.253661 -0.0014,-1.357512 0.01568,-1.550985 0.199273,-2.23582 0.110549,-0.412341 0.309141,-1.022154 0.441312,-1.355142 0.132171,-0.332988 0.240313,-0.638321 0.240313,-0.678519 0,-0.04455 -1.400389,-0.06515 -3.5859719,-0.05275 l -3.5859727,0.02033 -0.020034,4.282342 -0.020034,4.282343 H 9.9414421 13.577687 Z M 37.630455,34.183087 V 29.88119 h -3.61365 c -2.860249,0 -3.605436,0.02039 -3.574244,0.09777 0.633788,1.572486 0.78622,2.131841 0.914833,3.356965 0.145415,1.385195 -0.116006,3.217012 -0.628818,4.406006 -0.09277,0.215093 -0.199342,0.470274 -0.236832,0.567067 l -0.06816,0.175987 h 3.603437 3.603434 z"
       id="path1"
       sodipodi:nodetypes="cscccssscscsccccssscsscccsssscsscccssccssssscssscssscsssccssssssssssccsssccsscsccsssscsscccsccsscccccccccscssscccc" /></g></svg>
