<?xml version="1.0" encoding="UTF-8" standalone="no"?>
<!-- Created with Inkscape (http://www.inkscape.org/) -->

<svg
   width="40.000225mm"
   height="40.000225mm"
   viewBox="0 0 40.000225 40.000227"
   version="1.1"
   id="svg1"
   xml:space="preserve"
   inkscape:version="1.4.3 (0d15f75, 2025-12-25)"
   sodipodi:docname="clear_results_icon.svg"
   xmlns:inkscape="http://www.inkscape.org/namespaces/inkscape"
   xmlns:sodipodi="http://sodipodi.sourceforge.net/DTD/sodipodi-0.dtd"
   xmlns="http://www.w3.org/2000/svg"
   xmlns:svg="http://www.w3.org/2000/svg"><sodipodi:namedview
     id="namedview1"
     pagecolor="#505050"
     bordercolor="#eeeeee"
     borderopacity="1"
     inkscape:showpageshadow="0"
     inkscape:pageopacity="0"
     inkscape:pagecheckerboard="0"
     inkscape:deskcolor="#505050"
     inkscape:document-units="mm"
     inkscape:zoom="2.8284272"
     inkscape:cx="-11.667262"
     inkscape:cy="77.251414"
     inkscape:window-width="1920"
     inkscape:window-height="1009"
     inkscape:window-x="1912"
     inkscape:window-y="-8"
     inkscape:window-maximized="1"
     inkscape:current-layer="layer1" /><defs
     id="defs1" /><g
     inkscape:label="Layer 1"
     inkscape:groupmode="layer"
     id="layer1"
     transform="translate(-2.0073062,-14.328322)"><g
       id="g1"
       transform="matrix(3.1249749,0,0,3.1249749,-3.4040869,24.618342)" /><path
       style="fill:#ffffff;fill-opacity:1;stroke:none;stroke-width:1;stroke-dasharray:none;stroke-opacity:1"
       d="M 29.381764,54.29135 C 29.224356,54.26972 28.494548,54.164 27.759982,54.056408 20.180653,52.946227 13.013111,49.25765 8.2383313,44.010128 c -1.333657,-1.465703 -1.610164,-1.942266 -1.607155,-2.770024 0.0029,-0.684756 0.219048,-1.210587 0.677895,-1.645919 0.50666,-0.480697 0.886637,-0.587208 2.475437,-0.69388 2.9418647,-0.197519 5.5538847,-0.854354 7.9832997,-2.007529 2.186496,-1.037874 3.66505,-2.282334 4.990924,-4.200743 0.433362,-0.627031 0.806136,-1.140056 0.828383,-1.140056 0.08314,0 3.934362,2.208401 3.934362,2.256093 0,0.121147 -1.894111,2.771397 -2.329828,3.259916 -2.253122,2.526174 -5.945582,4.598325 -9.976658,5.598744 -1.205188,0.299099 -1.340868,0.342798 -1.294989,0.417039 0.02553,0.04124 0.456017,0.388357 0.956735,0.771351 l 0.910374,0.696356 0.57059,-0.160102 c 1.38358,-0.388212 2.186877,-0.87853 3.680218,-2.24635 0.574264,-0.525993 1.057188,-0.917465 1.073161,-0.869936 0.04783,0.142404 -0.359695,2.220922 -0.513163,2.617195 -0.153239,0.395695 -0.710959,1.254662 -1.303673,2.007847 -0.202384,0.257171 -0.33368,0.499024 -0.291779,0.537449 0.04196,0.03843 0.484025,0.278776 0.982485,0.534107 0.799939,0.409761 0.975861,0.464032 1.499073,0.462462 0.535836,-0.0017 0.70539,-0.05876 1.764884,-0.594906 1.37793,-0.697282 2.600346,-1.588877 4.71998,-3.442616 0.849479,-0.742912 1.564759,-1.350749 1.589511,-1.350749 0.02477,0 -0.122176,0.650488 -0.326543,1.445526 -0.42183,1.641064 -0.852981,2.582664 -2.041818,4.459202 -0.406257,0.641252 -0.723251,1.180481 -0.70444,1.198291 0.01879,0.0178 0.592276,0.12091 1.274385,0.229116 0.969427,0.153787 1.264876,0.171539 1.353285,0.08132 0.250996,-0.256156 1.69167,-2.745648 2.402384,-4.151328 0.965896,-1.910381 1.718275,-3.676862 2.588066,-6.076397 0.380384,-1.049392 0.724675,-1.944187 0.765077,-1.988436 0.06235,-0.06823 4.137724,1.278284 4.27036,1.410924 0.06833,0.06834 -0.659302,2.145836 -1.472015,4.202677 -0.786443,1.990358 -2.237576,5.0411 -3.17647,6.677937 -0.960258,1.674083 -2.360778,3.726299 -2.817107,4.127978 -0.554305,0.487918 -1.475944,0.740733 -2.291798,0.628663 z m 1.099659,-1.752945 c 0.605166,-0.323875 3.378625,-5.007233 4.631752,-7.821353 0.929345,-2.086996 1.980905,-4.833368 1.915704,-5.003275 -0.03911,-0.101982 -1.096063,-0.482984 -1.159946,-0.418142 -0.017,0.01726 -0.287004,0.718242 -0.600022,1.557755 -1.279816,3.432518 -2.877508,6.638057 -4.668596,9.366893 -0.428266,0.652484 -0.579124,0.806381 -0.916942,0.935395 -0.384532,0.146852 -0.476668,0.142242 -1.879372,-0.09405 -1.452472,-0.244677 -3.901885,-0.773826 -3.990036,-0.861971 -0.02477,-0.02481 0.326999,-0.597226 0.78181,-1.272023 0.454812,-0.674798 0.826929,-1.258368 0.826929,-1.29682 0,-0.03845 -0.189162,0.04094 -0.420349,0.176422 -1.689403,0.990057 -2.723453,1.339513 -3.782264,1.278219 -0.71004,-0.0411 -0.811544,-0.0797 -2.798534,-1.064151 -1.133968,-0.561826 -2.061767,-1.049401 -2.061767,-1.083496 0,-0.0341 0.17427,-0.268673 0.387265,-0.521279 0.213004,-0.252607 0.34526,-0.459285 0.293904,-0.459285 -0.05136,0 -0.352843,0.06646 -0.66997,0.147718 -0.837228,0.214489 -1.126015,0.104514 -2.486133,-0.946717 -1.379773,-1.066413 -3.559995,-3.032767 -3.461973,-3.122359 0.03844,-0.03513 0.713798,-0.178593 1.500847,-0.318836 4.878628,-0.869326 8.338495,-2.322018 10.971206,-4.60648 0.684444,-0.593906 1.714923,-1.781178 2.172668,-2.503266 l 0.169601,-0.267543 -0.525897,-0.296802 c -0.289255,-0.163241 -0.562353,-0.2968 -0.606894,-0.2968 -0.04452,0 -0.249107,0.246727 -0.454585,0.548284 -0.596206,0.874956 -1.94465,2.146301 -3.052567,2.878021 -2.859237,1.888376 -6.526043,3.061333 -10.484409,3.353808 -0.7861007,0.05808 -1.5046627,0.145954 -1.5968087,0.195266 -0.268716,0.143815 -0.3169,0.544692 -0.112177,0.933274 0.273706,0.519532 3.4855217,3.688625 4.5692547,4.508474 2.901718,2.195169 6.049926,3.831887 9.587608,4.984501 3.187365,1.038476 7.246932,1.751206 7.9207,1.39062 z m 1.194681,-18.224647 c -4.24741,-1.889769 -7.738578,-3.451961 -7.758147,-3.471534 -0.01955,-0.01958 0.142951,-0.409674 0.361175,-0.866891 0.70945,-1.48645 2.212322,-2.67972 3.786675,-3.006609 0.732629,-0.152117 2.125185,-0.06582 2.794643,0.17318 0.720006,0.257046 5.4054,2.338385 6.344038,2.81814 1.389405,0.710148 2.487129,2.043291 2.853941,3.465985 0.171444,0.66495 0.194477,1.876122 0.04783,2.514306 -0.133149,0.579378 -0.574815,1.812974 -0.648388,1.810977 -0.03254,-9.03e-4 -3.534333,-1.547782 -7.781742,-3.437554 z m 6.889137,0.290087 c -0.09415,-1.650588 -0.834323,-2.608262 -2.689902,-3.480143 -2.055162,-0.965666 -5.443668,-2.421373 -5.901953,-2.535487 -0.710562,-0.176935 -1.66148,-0.06973 -2.370905,0.267317 -0.632565,0.300525 -1.416588,0.913074 -1.416588,1.10677 0,0.129477 12.215459,5.594691 12.342808,5.522192 0.04623,-0.0263 0.06264,-0.422599 0.03655,-0.880649 z M 9.9931073,36.463683 c -1.340595,-0.291254 -2.527751,-1.238824 -3.152088,-2.515951 -0.349976,-0.715909 -0.355044,-0.742675 -0.355044,-1.876008 0,-1.142023 0.0028,-1.154734 0.368056,-1.894436 1.423317,-2.879888 4.9534917,-3.513773 7.2202627,-1.296486 1.395063,1.364606 1.726246,3.414027 0.841973,5.210244 -0.583148,1.18454 -1.894946,2.170462 -3.220204,2.420233 -0.649289,0.122371 -0.960694,0.113665 -1.7029557,-0.0476 z m 2.1367367,-1.822944 c 1.316362,-0.621594 1.979329,-2.230185 1.472383,-3.57248 -0.236949,-0.627371 -0.879138,-1.314616 -1.524888,-1.631862 -0.616649,-0.302948 -1.684581,-0.297878 -2.3256697,0.01099 -1.753846,0.845132 -2.237179,3.066762 -0.97306,4.472756 0.897,0.997684 2.1800977,1.273563 3.3512347,0.720545 z M 34.771807,28.414828 C 31.982698,27.174425 31.937748,27.15111 31.686146,26.814496 31.465634,26.519484 31.47841,26.484925 32.562342,24.444743 38.099752,14.022209 37.755033,14.5881 38.688537,14.3879 c 1.587376,-0.340431 3.562604,1.160671 3.29407,2.503376 -0.0959,0.479523 -4.13964,11.577748 -4.41909,12.128389 l -0.263628,0.519474 z m 3.682761,-6.453126 c 1.840165,-5.070543 1.928194,-5.34411 1.774288,-5.514172 -0.426083,-0.470814 -1.160789,-0.592652 -1.392726,-0.23096 -0.390247,0.608583 -5.210639,9.74995 -5.18379,9.830505 0.03597,0.107921 2.648655,1.302143 2.779782,1.270599 0.04745,-0.0114 0.957523,-2.421593 2.022446,-5.355972 z M 4.1620038,26.10582 C 3.3663181,25.862809 2.6485523,25.22002 2.2539125,24.397042 2.048568,23.96883 2.0032777,23.74078 2.007577,23.156856 c 0.00663,-0.857307 0.2221527,-1.407133 0.7972802,-2.031071 1.4476611,-1.57053 4.1057301,-1.107916 4.9960401,0.869522 0.305862,0.679337 0.288105,1.713371 -0.04147,2.416559 -0.298051,0.635857 -0.873132,1.225427 -1.483518,1.52091 -0.499475,0.241793 -1.595091,0.331483 -2.1138622,0.173044 z m 1.5943225,-1.779234 c 0.418415,-0.312386 0.603003,-0.640747 0.609713,-1.084565 0.01266,-0.836632 -0.545582,-1.420041 -1.35875,-1.420041 -0.589687,0 -1.0148398,0.278533 -1.2554617,0.822492 -0.2352786,0.531887 -0.1802316,0.951167 0.1812945,1.380812 0.4815002,0.57223 1.2829372,0.704675 1.8232042,0.301302 z m 5.1416687,1.74693 c -0.9024757,-0.322061 -1.5040647,-1.183539 -1.5002497,-2.14835 0.0065,-1.631661 1.6917087,-2.75452 3.1460807,-2.09618 0.911693,0.412693 1.376223,1.11851 1.376223,2.091062 0,1.590919 -1.534446,2.684343 -3.022054,2.153468 z m 1.220866,-1.719835 c 0.128796,-0.128796 0.234159,-0.323925 0.234159,-0.433633 0,-0.109715 -0.105362,-0.304844 -0.234159,-0.433633 -0.128796,-0.128782 -0.323922,-0.234162 -0.433628,-0.234162 -0.109715,0 -0.304846,0.105376 -0.433636,0.234162 -0.128796,0.128796 -0.234159,0.323923 -0.234159,0.433633 0,0.109715 0.105362,0.304842 0.234159,0.433633 0.297129,0.29713 0.570135,0.29713 0.867264,0 z"
       id="path1"
       sodipodi:nodetypes="ssscsssssssssscssssssscssssssssssssssssssssssssssssssssssssssscsssssssssssssssssscssssssssssscsssssssssssssssscssssssssssssssssssssssssssssssssss" /></g></svg>
