<?xml version="1.0" encoding="UTF-8" standalone="no"?>
<!-- Created with Inkscape (http://www.inkscape.org/) -->

<svg
   width="40.000225mm"
   height="40.000225mm"
   viewBox="0 0 40.000225 40.000227"
   version="1.1"
   id="svg1"
   xml:space="preserve"
   inkscape:version="1.4.3 (0d15f75, 2025-12-25)"
   sodipodi:docname="design_area_icon.svg"
   xmlns:inkscape="http://www.inkscape.org/namespaces/inkscape"
   xmlns:sodipodi="http://sodipodi.sourceforge.net/DTD/sodipodi-0.dtd"
   xmlns:xlink="http://www.w3.org/1999/xlink"
   xmlns="http://www.w3.org/2000/svg"
   xmlns:svg="http://www.w3.org/2000/svg"><sodipodi:namedview
     id="namedview1"
     pagecolor="#505050"
     bordercolor="#eeeeee"
     borderopacity="1"
     inkscape:showpageshadow="0"
     inkscape:pageopacity="0"
     inkscape:pagecheckerboard="0"
     inkscape:deskcolor="#505050"
     inkscape:document-units="mm"
     inkscape:zoom="4.0000001"
     inkscape:cx="25.749999"
     inkscape:cy="77.624998"
     inkscape:window-width="1920"
     inkscape:window-height="1009"
     inkscape:window-x="1912"
     inkscape:window-y="-8"
     inkscape:window-maximized="1"
     inkscape:current-layer="layer1"
     showgrid="false" /><defs
     id="defs1"><pattern
       inkscape:collect="always"
       xlink:href="#pattern4"
       preserveAspectRatio="xMidYMid"
       id="pattern5"
       patternTransform="translate(-0.20954754,0.46060283)"
       x="0"
       y="0" /><pattern
       patternUnits="userSpaceOnUse"
       width="20"
       height="20"
       preserveAspectRatio="xMidYMid"
       id="pattern4"
       x="0"
       y="0"
       style="fill:#ffffff"
       inkscape:label="Regular grid"
       inkscape:collect="always"
       inkscape:isstock="true"><g
         id="g4"><rect
           style="fill-opacity:1;stroke:none;stroke-width:1;stroke-dasharray:none"
           id="rect3"
           width="1"
           height="20"
           x="9.5"
           y="0" /><rect
           style="fill-opacity:1;stroke:none;stroke-width:1;stroke-dasharray:none"
           id="rect4"
           width="1"
           height="20"
           x="-10.5"
           y="0"
           transform="rotate(-90)" /></g></pattern><linearGradient
       id="swatch2"
       inkscape:swatch="solid"><stop
         style="stop-color:#000000;stop-opacity:1;"
         offset="0"
         id="stop2" /></linearGradient><linearGradient
       id="swatch6"
       inkscape:swatch="solid"><stop
         style="stop-color:#000000;stop-opacity:0;"
         offset="0"
         id="stop6" /></linearGradient></defs><g
     inkscape:label="Layer 1"
     inkscape:groupmode="layer"
     id="layer1"
     transform="translate(-2.0073062,-14.328322)"><g
       id="g1"
       transform="matrix(3.1249749,0,0,3.1249749,-3.4040869,24.618342)"
       style="display:inline" /><g
       id="g2"
       transform="matrix(5.2036093,0,0,5.2036093,-63.835629,-203.29574)"
       style="stroke-width:0.724231"><rect
         style="fill:none;stroke:#f9f9f9;stroke-width:0.19006;stroke-linejoin:miter;stroke-dasharray:none;stroke-dashoffset:0"
         id="rect2"
         width="5.5751691"
         height="5.5751691"
         x="13.709222"
         y="42.877655"
         ry="0" /><path
         style="fill:#000000;fill-opacity:1;stroke:#f9f9f9;stroke-width:0.0960867;stroke-linejoin:miter;stroke-dasharray:none;stroke-dashoffset:0"
         d="m 13.710595,43.542446 0.663373,-0.663373"
         id="path8"
         sodipodi:nodetypes="cc" /><path
         style="fill:#000000;fill-opacity:1;stroke:#f9f9f9;stroke-width:0.0960867;stroke-linejoin:miter;stroke-dasharray:none;stroke-dashoffset:0"
         d="m 13.710595,44.603843 1.724771,-1.72477"
         id="path9"
         sodipodi:nodetypes="cc" /><path
         style="fill:#000000;fill-opacity:1;stroke:#f9f9f9;stroke-width:0.0960867;stroke-linejoin:miter;stroke-dasharray:none;stroke-dashoffset:0"
         d="m 13.710595,45.665241 2.786168,-2.786168"
         id="path13"
         sodipodi:nodetypes="cc" /><path
         style="fill:#000000;fill-opacity:1;stroke:#f9f9f9;stroke-width:0.0960867;stroke-linejoin:miter;stroke-dasharray:none;stroke-dashoffset:0"
         d="M 13.710595,46.726638 17.55816,42.879073"
         id="path15"
         sodipodi:nodetypes="cc" /><path
         style="fill:#000000;fill-opacity:1;stroke:#f9f9f9;stroke-width:0.0960867;stroke-linejoin:miter;stroke-dasharray:none;stroke-dashoffset:0"
         d="m 13.710595,47.788035 4.908963,-4.908962"
         id="path17"
         sodipodi:nodetypes="cc" /><path
         style="fill:#000000;fill-opacity:1;stroke:#f9f9f9;stroke-width:0.0960867;stroke-linejoin:miter;stroke-dasharray:none;stroke-dashoffset:0"
         d="m 14.108619,48.451409 5.174312,-5.174312"
         id="path19"
         sodipodi:nodetypes="cc" /><path
         style="fill:#000000;fill-opacity:1;stroke:#f9f9f9;stroke-width:0.0960867;stroke-linejoin:miter;stroke-dasharray:none;stroke-dashoffset:0"
         d="m 15.170016,48.451409 4.112915,-4.112915"
         id="path21"
         sodipodi:nodetypes="cc" /><path
         style="fill:#000000;fill-opacity:1;stroke:#f9f9f9;stroke-width:0.0960867;stroke-linejoin:miter;stroke-dasharray:none;stroke-dashoffset:0"
         d="m 16.231414,48.451409 3.051517,-3.051518"
         id="path23"
         sodipodi:nodetypes="cc" /><path
         style="fill:#000000;fill-opacity:1;stroke:#f9f9f9;stroke-width:0.0960867;stroke-linejoin:miter;stroke-dasharray:none;stroke-dashoffset:0"
         d="m 17.292811,48.451409 1.99012,-1.99012"
         id="path25"
         sodipodi:nodetypes="cc" /><path
         style="fill:#000000;fill-opacity:1;stroke:#f9f9f9;stroke-width:0.0960867;stroke-linejoin:miter;stroke-dasharray:none;stroke-dashoffset:0"
         d="m 18.354208,48.451409 0.928723,-0.928723"
         id="path27"
         sodipodi:nodetypes="cc" /><path
         style="fill:#ffffff;fill-opacity:1;stroke:#f9f9f9;stroke-width:0;stroke-dasharray:none;stroke-opacity:1"
         d="m 16.450835,46.998952 c -0.05405,-0.02165 -0.09529,-0.07585 -0.09529,-0.125246 0,-0.01343 0.0091,-0.05141 0.02013,-0.08439 0.02127,-0.06336 0.11257,-0.252703 0.121853,-0.252703 0.0081,0 0.10543,0.200903 0.121668,0.251058 0.0077,0.02373 0.01417,0.06318 0.01442,0.08766 5.64e-4,0.05595 -0.01612,0.08088 -0.07393,0.110438 -0.04334,0.02216 -0.07643,0.02617 -0.108853,0.01318 z m -0.671937,-0.09047 c -0.03507,-0.01927 -0.05104,-0.03525 -0.06752,-0.06754 -0.03971,-0.0778 -0.0013,-0.147451 0.16456,-0.298309 0.06471,-0.05886 0.07609,-0.06643 0.08077,-0.05377 0.003,0.0081 0.0096,0.06395 0.01478,0.124096 0.01889,0.221643 -0.01208,0.295027 -0.128743,0.305007 -0.02808,0.0024 -0.04744,-4.61e-4 -0.06384,-0.0095 z m 1.325904,9.93e-4 c -0.05577,-0.02598 -0.07742,-0.06033 -0.08569,-0.13591 -0.0053,-0.04875 0.008,-0.258365 0.01815,-0.285859 0.0044,-0.01188 0.01635,-0.004 0.07457,0.0495 0.132233,0.121383 0.184841,0.191556 0.184841,0.246555 0,0.02857 -0.02327,0.08137 -0.04395,0.09973 -0.03937,0.03496 -0.104212,0.04635 -0.147925,0.02598 z m -1.918245,-0.25621 c -0.06744,-0.02 -0.107949,-0.08191 -0.09996,-0.152763 0.0073,-0.06502 0.04607,-0.09738 0.158805,-0.132656 0.06174,-0.01932 0.230146,-0.05485 0.235292,-0.04965 0.0033,0.0034 -0.05503,0.129237 -0.08859,0.190955 -0.03311,0.06089 -0.07512,0.118041 -0.09756,0.132729 -0.02428,0.01589 -0.07483,0.02122 -0.107982,0.01138 z m 2.529279,-0.0061 c -0.02175,-0.0099 -0.04312,-0.02968 -0.06542,-0.06063 -0.04083,-0.05668 -0.144925,-0.264519 -0.134259,-0.268075 0.01245,-0.0041 0.171615,0.0298 0.235901,0.05032 0.108643,0.03467 0.147653,0.06763 0.154767,0.130744 0.0081,0.07199 -0.02896,0.131443 -0.09401,0.150763 -0.05056,0.01501 -0.05755,0.01479 -0.09698,-0.0031 z m -1.278819,-0.3683 c -0.01776,-0.0083 -0.04191,-0.02771 -0.05367,-0.04312 -0.03015,-0.03953 -0.03321,-0.07773 -0.01168,-0.145942 0.0203,-0.06434 0.112958,-0.259253 0.123235,-0.259253 0.0088,0 0.09913,0.186288 0.119517,0.246403 0.0086,0.02549 0.01572,0.06208 0.01572,0.08131 0,0.09743 -0.103921,0.162329 -0.193128,0.120606 z m -0.638505,-0.124502 c 0,0.05327 -0.08583,-0.07468 -0.08613,-0.133988 -3.2e-4,-0.06291 0.02653,-0.09419 0.121435,-0.141437 0.06397,-0.03185 0.236939,-0.09262 0.243874,-0.08569 0.008,0.008 -0.06907,0.224103 -0.0994,0.278928 -0.03885,0.07022 -0.06435,0.08802 -0.124857,0.0872 -0.02373,-3.2e-4 -0.05492,-0.01193 -0.05492,-0.005 z m 1.274879,-0.0097 c 0,-0.01539 -0.03561,-0.03497 -0.05032,-0.05925 -0.02588,-0.0427 -0.114585,-0.284786 -0.107096,-0.292275 0.0067,-0.0067 0.179831,0.05423 0.245141,0.08632 0.03529,0.01734 0.07589,0.04363 0.09022,0.05844 0.02467,0.02547 0.02607,0.02998 0.02607,0.08395 0,0.05077 -0.0025,0.0603 -0.02261,0.08668 -0.01243,0.0163 -0.03439,0.03456 -0.04878,0.04057 -0.0383,0.016 -0.132622,0.02935 -0.132622,-0.0044 z m -1.060573,-0.510255 c -0.02085,-0.0085 -0.03386,-0.03117 -0.03386,-0.05896 0,-0.0232 0.04936,-0.09108 0.103217,-0.141942 0.06194,-0.05849 0.06047,-0.05804 0.188892,-0.05804 h 0.116016 l -0.002,-0.366781 -0.002,-0.366781 h -0.253308 c -0.216631,0 -0.254388,0.0017 -0.260745,0.01177 -0.01319,0.02089 -0.0093,0.151025 0.0051,0.171609 0.007,0.01001 0.04673,0.04018 0.08826,0.06707 0.228747,0.148046 0.331859,0.218987 0.342992,0.235978 0.03497,0.05337 0.01376,0.131435 -0.04366,0.160732 -0.03799,0.01938 -0.05775,0.01961 -0.09841,0.0011 -0.02579,-0.01171 -0.34298,-0.215973 -0.462384,-0.297758 -0.05654,-0.03872 -0.06281,-0.05837 -0.06559,-0.20539 -0.002,-0.108445 -0.0045,-0.131044 -0.01523,-0.13926 -0.0084,-0.0065 -0.0422,-0.0098 -0.09954,-0.0098 -0.148278,-2.1e-5 -0.169667,-0.02203 -0.175387,-0.180452 -0.0034,-0.09406 -0.0026,-0.100953 0.01309,-0.116663 l 0.0167,-0.01669 1.119957,1.22e-4 c 0.692639,7.8e-5 1.124448,0.003 1.131726,0.0076 0.01866,0.0118 0.01665,0.214235 -0.0025,0.249606 -0.02492,0.04608 -0.05262,0.05647 -0.150726,0.0565 -0.125789,4.3e-5 -0.121391,-0.0052 -0.121391,0.145869 0,0.136253 -0.0056,0.159139 -0.0479,0.194714 -0.05479,0.04612 -0.467203,0.310984 -0.497062,0.319232 -0.0403,0.01113 -0.07959,-2.36e-4 -0.109814,-0.03179 -0.01754,-0.01831 -0.02329,-0.03273 -0.02587,-0.0649 -0.0058,-0.07227 0.0056,-0.08252 0.311901,-0.279712 0.06257,-0.04028 0.119939,-0.08031 0.127491,-0.08896 0.01118,-0.0128 0.01373,-0.0308 0.01373,-0.09695 0,-0.07228 -0.0017,-0.08213 -0.01518,-0.08935 -0.0095,-0.0051 -0.1059,-0.0081 -0.258905,-0.0081 h -0.243722 v 0.368742 0.368743 l 0.1118,2.9e-5 c 0.09769,2.5e-5 0.115024,0.002 0.137349,0.01561 0.03064,0.01868 0.08652,0.07538 0.128397,0.130276 0.02536,0.03324 0.02969,0.04411 0.02564,0.06432 -0.0027,0.01338 -0.01189,0.03068 -0.02048,0.03846 -0.01463,0.01324 -0.04525,0.01423 -0.487487,0.01569 -0.262637,8.86e-4 -0.479477,-0.0016 -0.489017,-0.0054 z"
         id="path1"
         sodipodi:nodetypes="sssssssscssssscssssssssssssssssssssssssssssscssscsssscssssssscssscccscscssssscccscccssssscsssssscccscsssccc" /></g></g></svg>
