<?xml version="1.0" encoding="UTF-8" standalone="no"?>
<!-- Created with Inkscape (http://www.inkscape.org/) -->

<svg
   width="40.000225mm"
   height="40.000225mm"
   viewBox="0 0 40.000225 40.000227"
   version="1.1"
   id="svg1"
   xml:space="preserve"
   inkscape:version="1.4.3 (0d15f75, 2025-12-25)"
   sodipodi:docname="scale_icon.svg"
   xmlns:inkscape="http://www.inkscape.org/namespaces/inkscape"
   xmlns:sodipodi="http://sodipodi.sourceforge.net/DTD/sodipodi-0.dtd"
   xmlns="http://www.w3.org/2000/svg"
   xmlns:svg="http://www.w3.org/2000/svg"><sodipodi:namedview
     id="namedview1"
     pagecolor="#505050"
     bordercolor="#eeeeee"
     borderopacity="1"
     inkscape:showpageshadow="0"
     inkscape:pageopacity="0"
     inkscape:pagecheckerboard="0"
     inkscape:deskcolor="#505050"
     inkscape:document-units="mm"
     inkscape:zoom="2.8284273"
     inkscape:cx="70.357121"
     inkscape:cy="21.389979"
     inkscape:window-width="1920"
     inkscape:window-height="1009"
     inkscape:window-x="1912"
     inkscape:window-y="-8"
     inkscape:window-maximized="1"
     inkscape:current-layer="layer1"
     showgrid="false" /><defs
     id="defs1"><linearGradient
       id="swatch2"
       inkscape:swatch="solid"><stop
         style="stop-color:#000000;stop-opacity:1;"
         offset="0"
         id="stop2" /></linearGradient><linearGradient
       id="swatch6"
       inkscape:swatch="solid"><stop
         style="stop-color:#000000;stop-opacity:0;"
         offset="0"
         id="stop6" /></linearGradient></defs><g
     inkscape:label="Layer 1"
     inkscape:groupmode="layer"
     id="layer1"
     transform="translate(-2.0073062,-14.328322)"><path
       style="fill:#ffffff;stroke-width:1;stroke-dasharray:none;stroke:none;stroke-opacity:1;fill-opacity:1"
       d="m 5.517517,52.601088 c -0.27574,-0.107914 -3.18285,-3.017424 -3.3653,-3.368074 -0.17849,-0.343027 -0.19195,-0.675573 -0.0413,-1.021397 0.0638,-0.146573 3.28995,-3.428615 7.73552,-7.869596 4.194308,-4.189989 7.626017,-7.646024 7.626017,-7.680078 0,-0.03405 -0.07229,-0.159691 -0.160638,-0.279193 -0.185818,-0.251332 -0.224466,-0.897433 -0.0714,-1.193637 0.05245,-0.101507 0.759405,-0.854153 1.571,-1.672549 l 1.475628,-1.487989 -0.25912,-0.251149 -0.25912,-0.25115 -0.23007,0.244526 c -0.575059,0.611193 -1.284913,0.493856 -1.284913,-0.212393 0,-0.169943 0.219461,-0.435235 1.070774,-1.29439 0.985769,-0.994849 1.09336,-1.080637 1.355279,-1.080637 0.300186,0 0.484848,0.142772 0.57729,0.446334 0.0633,0.207851 -0.04819,0.442845 -0.372735,0.78569 l -0.241693,0.255316 0.251693,0.251693 0.251693,0.251692 1.497713,-1.497713 1.497713,-1.497713 -0.782965,-1.042826 c -0.430631,-0.573555 -0.823592,-1.118737 -0.873246,-1.211517 -0.201582,-0.376659 -0.118312,-0.570027 0.520606,-1.208945 0.907204,-0.907205 0.807843,-0.939216 2.590651,0.83464 0.799051,0.79504 1.486379,1.445526 1.527394,1.445526 0.04102,0 0.593277,-0.517838 1.227247,-1.150751 l 1.152672,-1.15075 -1.483807,-1.49092 c -1.817444,-1.826158 -1.782123,-1.719779 -0.872921,-2.628981 0.869651,-0.869651 0.753137,-0.896534 2.812991,0.649011 l 1.679152,1.259898 0.227148,-0.13418 c 0.148974,-0.088 0.299442,-0.116354 0.437208,-0.08239 0.131119,0.03233 0.91071,0.747134 2.074469,1.902073 l 1.864409,1.850279 2.882386,4.318585 c 1.585312,2.375221 2.882385,4.37238 2.882385,4.438129 0,0.238232 -0.236218,0.554356 -0.912507,1.22118 -0.743453,0.733049 -0.96731,0.865185 -1.275316,0.75278 -0.107437,-0.03921 -1.663071,-1.537455 -3.456964,-3.329438 l -3.261624,-3.258148 -0.253595,0.253595 -0.253595,0.253595 3.257656,3.261623 c 1.791711,1.793894 3.289958,3.349529 3.329437,3.456966 0.113342,0.308443 -0.01859,0.532239 -0.751794,1.275316 -0.666851,0.675825 -0.983556,0.912507 -1.221026,0.912507 -0.06539,0 -1.675644,-1.036832 -3.578335,-2.304072 l -3.459437,-2.304072 -3.20389,3.199203 c -2.176864,2.173679 -3.297013,3.237876 -3.494393,3.319847 -0.404581,0.16802 -0.683943,0.151016 -1.093097,-0.06653 l -0.352032,-0.187177 -7.609998,7.617857 c -4.43609,4.44067 -7.71486,7.663525 -7.86143,7.727353 -0.28701,0.124988 -0.75114,0.135337 -1.03782,0.02314 z M 21.144822,36.324143 c 0,-0.03967 -0.05868,-0.136981 -0.130411,-0.216238 -0.07475,-0.0826 -0.145459,-0.325557 -0.16567,-0.569277 -0.02945,-0.355108 -0.0023,-0.480456 0.164446,-0.760621 0.109838,-0.184494 1.53772,-1.671021 3.173072,-3.303393 l 2.973367,-2.967949 -0.485736,-0.490093 -0.485736,-0.490091 -3.166293,3.159175 c -3.119952,3.112938 -3.171773,3.159969 -3.540762,3.213467 -0.313628,0.04547 -0.435878,0.02243 -0.752423,-0.141797 l -0.377952,-0.196088 -0.240348,0.240348 -0.240348,0.240348 0.309076,0.335307 c 0.386696,0.419517 0.423065,0.784749 0.103197,1.036357 -0.308608,0.242751 -0.534501,0.202942 -0.933052,-0.164429 l -0.354073,-0.326373 -0.246863,0.246863 -0.246864,0.246864 0.246276,0.255317 c 0.430948,0.446769 0.483163,0.867971 0.142632,1.150586 -0.249136,0.206765 -0.573192,0.130471 -0.928986,-0.218714 l -0.33237,-0.326197 -0.262919,0.271263 -0.262918,0.271263 0.325118,0.352711 c 0.366086,0.397156 0.405704,0.623364 0.163175,0.93169 -0.251609,0.319869 -0.616841,0.2835 -1.036357,-0.103197 l -0.335308,-0.309075 -0.2455,0.2455 -0.245499,0.2455 0.309074,0.335307 c 0.386697,0.419517 0.423066,0.784749 0.103197,1.036357 -0.308606,0.242751 -0.534499,0.202942 -0.93305,-0.164429 l -0.354077,-0.326373 -0.24294,0.242945 -0.24295,0.242946 0.25239,0.287449 c 0.31801,0.362202 0.41395,0.609138 0.32626,0.83979 -0.19102,0.502418 -0.65524,0.53035 -1.12656,0.06779 l -0.33237,-0.326197 -0.26292,0.271263 -0.26292,0.271263 0.32512,0.352712 c 0.36609,0.397156 0.4057,0.623363 0.16317,0.93169 -0.2516,0.319868 -0.61684,0.283499 -1.03635,-0.103197 l -0.33531,-0.309076 -0.2455,0.2455 -0.2455,0.2455 0.30907,0.335308 c 0.3867,0.419516 0.42307,0.784748 0.1032,1.036357 -0.30832,0.242529 -0.53453,0.202911 -0.93169,-0.163174 l -0.35271,-0.325119 -0.27126,0.262919 -0.27127,0.262918 0.3262,0.33237 c 0.46257,0.471319 0.43463,0.935538 -0.0678,1.126557 -0.23066,0.08769 -0.47759,-0.0082 -0.83979,-0.326258 l -0.28745,-0.252384 -0.24295,0.242945 -0.24294,0.242945 0.32637,0.354074 c 0.36737,0.39855 0.40718,0.624443 0.16443,0.933051 -0.25161,0.319868 -0.61684,0.2835 -1.03636,-0.103197 l -0.33531,-0.309076 -0.2455,0.2455 -0.2455,0.245501 0.30908,0.335307 c 0.3867,0.419517 0.42306,0.784749 0.1032,1.036357 -0.30871,0.24283 -0.53449,0.202953 -0.93355,-0.164882 l -0.35456,-0.326826 -0.67831,0.678312 -0.67832,0.678313 1.40529,1.406918 1.40529,1.406918 7.560194,-7.559891 c 4.158104,-4.15794 7.560191,-7.592352 7.560191,-7.632026 z m 5.325231,-3.377223 c 3.268599,-3.265478 3.423316,-3.407975 3.650837,-3.362471 0.130674,0.02613 1.772784,1.071386 3.649133,2.322778 l 3.411543,2.275259 0.304911,-0.297738 0.304911,-0.297737 -4.861428,-4.861897 -4.861429,-4.861895 -0.334648,0.308467 c -0.264395,0.243711 -0.395543,0.308467 -0.624727,0.308467 -0.271982,0 -0.381657,-0.09112 -1.757908,-1.460458 -0.807306,-0.803252 -1.49098,-1.437306 -1.519278,-1.409009 -0.0283,0.0283 0.340039,0.574867 0.818524,1.2146 0.708345,0.947053 0.869974,1.212399 0.869974,1.428231 0,0.245429 -0.267878,0.533005 -3.613267,3.878974 l -3.613266,3.613895 0.488021,0.488021 0.488021,0.488021 3.261984,-3.258017 c 1.794092,-1.791909 3.358679,-3.293936 3.47686,-3.337838 0.130571,-0.0485 0.283852,-0.0528 0.390683,-0.01096 0.09669,0.03788 0.641696,0.540972 1.211116,1.117991 0.84562,0.856905 1.035309,1.090339 1.035309,1.274068 0,0.192138 -0.486751,0.71257 -3.337607,3.568555 l -3.337607,3.343611 0.463644,0.468532 c 0.255003,0.257693 0.499374,0.468532 0.543045,0.468532 0.04367,0 1.615363,-1.534494 3.492649,-3.409987 z M 38.02183,26.854577 35.427658,22.956491 33.81987,21.339935 c -1.332662,-1.339931 -1.631243,-1.604003 -1.74486,-1.543197 -0.377685,0.202131 -0.568123,0.103648 -2.295237,-1.186957 -0.927619,-0.693174 -1.709581,-1.237317 -1.737691,-1.209207 -0.02811,0.02811 0.606096,0.711633 1.409348,1.518939 1.877629,1.887104 1.846239,1.680244 0.466562,3.074623 l -0.993896,1.004487 1.400789,1.402413 1.400789,1.402412 0.561486,-0.544442 c 0.899359,-0.87206 0.520624,-1.110656 4.40643,2.775957 l 3.319711,3.320402 0.301351,-0.30135 0.30135,-0.301351 z"
       id="path3" /></g></svg>
