<?xml version="1.0" encoding="UTF-8" standalone="no"?>
<!-- Created with Inkscape (http://www.inkscape.org/) -->

<svg
   width="40.000225mm"
   height="40.000225mm"
   viewBox="0 0 40.000225 40.000227"
   version="1.1"
   id="svg1"
   xml:space="preserve"
   inkscape:version="1.4.3 (0d15f75, 2025-12-25)"
   sodipodi:docname="trim_icon.svg"
   xmlns:inkscape="http://www.inkscape.org/namespaces/inkscape"
   xmlns:sodipodi="http://sodipodi.sourceforge.net/DTD/sodipodi-0.dtd"
   xmlns="http://www.w3.org/2000/svg"
   xmlns:svg="http://www.w3.org/2000/svg"><sodipodi:namedview
     id="namedview1"
     pagecolor="#505050"
     bordercolor="#eeeeee"
     borderopacity="1"
     inkscape:showpageshadow="0"
     inkscape:pageopacity="0"
     inkscape:pagecheckerboard="0"
     inkscape:deskcolor="#505050"
     inkscape:document-units="mm"
     inkscape:zoom="2.0000001"
     inkscape:cx="83.999998"
     inkscape:cy="87.249998"
     inkscape:window-width="1920"
     inkscape:window-height="1009"
     inkscape:window-x="1912"
     inkscape:window-y="-8"
     inkscape:window-maximized="1"
     inkscape:current-layer="layer1"
     showgrid="false" /><defs
     id="defs1"><linearGradient
       id="swatch2"
       inkscape:swatch="solid"><stop
         style="stop-color:#000000;stop-opacity:1;"
         offset="0"
         id="stop2" /></linearGradient><linearGradient
       id="swatch6"
       inkscape:swatch="solid"><stop
         style="stop-color:#000000;stop-opacity:0;"
         offset="0"
         id="stop6" /></linearGradient></defs><g
     inkscape:label="Layer 1"
     inkscape:groupmode="layer"
     id="layer1"
     transform="translate(-2.0073062,-14.328322)"><path
       d="m 18.129788,50.829098 c -1.850898,-3.161736 -1.552594,-6.680191 0.743764,-8.77268 l 1.226384,-1.117719 -0.334708,-1.88881 c -0.443749,-2.503957 0.01023,-2.283188 -7.587706,-3.6898 -8.5254883,-1.578337 -9.9885246,-2.477295 -10.1525397,-6.238235 -0.07863,-1.803132 -0.1147764,-1.79748 4.9990374,-0.780098 9.0077503,1.79207 10.8837953,2.115118 10.9384583,1.883556 0.03112,-0.131937 -0.554509,-3.399473 -1.301411,-7.261187 -1.717472,-8.879604 -1.705746,-8.586921 -0.346169,-8.633122 2.306541,-0.07837 4.670343,1.570839 5.36957,3.746336 0.349775,1.088275 0.496019,1.845122 1.823456,9.436968 l 0.722881,4.134194 2.098032,0.400966 c 1.153949,0.220562 2.219438,0.296202 2.367782,0.168124 0.147993,-0.12842 0.687762,-0.682853 1.201082,-1.230449 4.952594,-5.300613 15.519235,2.699702 11.019242,8.34298 -2.433106,3.051321 -6.179898,2.85813 -10.988741,-0.566595 -5.188698,-3.695242 -7.365159,-1.35828 -3.455419,3.71044 3.107522,4.028727 3.50804,7.86139 1.078489,10.320556 -2.533299,2.562663 -7.360063,1.556183 -9.421874,-1.965815 z m 4.804796,2.258028 c 5.116982,1.20795 6.650475,-4.430188 2.69427,-9.906041 -1.516864,-2.099522 -2.518969,-4.478266 -2.291868,-5.440321 0.0722,-0.30617 -2.535241,-0.966069 -2.78954,-0.70604 -0.05636,0.05759 0.04226,0.715702 0.21914,1.462424 0.5868,2.477304 0.521815,2.756731 -0.969298,4.167912 -3.361628,3.181499 -1.512522,9.3244 3.137296,10.422072 z m -2.794395,-4.250024 c -0.613674,-1.362706 -0.685485,-2.61788 -0.214752,-3.754306 1.600985,-3.865131 7.500941,0.582941 6.261978,4.721004 -0.841515,2.810652 -4.617992,2.206955 -6.047226,-0.966698 z m 2.976117,1.547816 c 2.335717,1.0489 2.996187,-2.436073 0.875896,-4.621457 -1.919771,-1.978703 -3.82641,-0.817546 -3.080672,1.876157 0.388879,1.404679 1.048551,2.22608 2.204776,2.7453 z M 9.5038761,33.72346 c 10.8008509,2.092873 14.0600909,2.574447 15.3350949,2.265925 1.724421,-0.417262 3.335725,0.07719 5.462361,1.676185 4.977623,3.742635 9.394084,3.57179 10.416765,-0.402954 1.375432,-5.345712 -7.223903,-9.248419 -10.715177,-4.862961 -1.053099,1.322804 -1.107521,1.320935 -9.676151,-0.34461 C 1.3227916,28.361231 2.2356428,28.435957 3.424189,30.671332 c 0.9068598,1.705599 2.0234428,2.266127 6.0796871,3.052128 z m 11.7676479,0.259155 c 0.110362,-0.467674 1.006503,-0.285009 1.006516,0.205151 -9.7e-5,0.398537 -0.623724,0.638413 -0.911761,0.350376 -0.10059,-0.10059 -0.143148,-0.350492 -0.09476,-0.555512 z m 10.464119,1.988778 c -0.982574,-2.005611 -0.419743,-3.381815 1.581526,-3.867013 2.168652,-0.525757 5.467699,1.430221 5.898179,3.496978 0.830725,3.98817 -5.552417,4.303946 -7.479705,0.370035 z m 3.225164,1.412281 c 1.293907,0.485848 2.240704,0.382916 2.943591,-0.319971 0.981583,-0.981581 -0.237023,-2.93281 -2.273835,-3.640861 -3.900199,-1.355805 -4.552678,2.502875 -0.669756,3.960832 z M 21.287109,31.123632 c 2.036312,0.376343 1.988127,0.846511 0.647055,-6.31099 -1.441116,-7.691483 -2.083274,-8.97651 -4.663871,-9.333045 l -0.86336,-0.119276 0.192591,1.18902 c 0.669729,4.134727 2.644465,13.778909 2.868732,14.010201 0.148188,0.152844 0.966574,0.406568 1.818855,0.564084 z"
       style="fill:#ffffff;fill-opacity:1;stroke-width:0.999997"
       id="path1-8" /></g></svg>
